<svg width="24" height="24" viewBox="0 0 24 24" fill="none" xmlns="http://www.w3.org/2000/svg">
<g id="allDone-viewed-outline">
<path id="icon" fill-rule="evenodd" clip-rule="evenodd" d="M12.5761 16.6764L13.1064 17.207C13.3283 17.429 13.6414 17.5339 13.9521 17.4905C14.2629 17.4471 14.5352 17.2603 14.6877 16.986L19.6916 7.98603C19.96 7.50333 19.7863 6.89447 19.3036 6.62609C18.8209 6.35772 18.212 6.53146 17.9436 7.01416L17.3868 8.01566C17.3731 8.0458 17.358 8.07563 17.3416 8.10508L12.5761 16.6764ZM9.02135 10.2911C8.63082 9.90059 7.99766 9.90059 7.60713 10.2911C7.21661 10.6816 7.21661 11.3148 7.60713 11.7053L8.17288 12.2711L9.18354 10.4533L9.02135 10.2911ZM14.172 6.6261C14.6547 6.89447 14.8284 7.50333 14.5601 7.98603L9.55616 16.986C9.4037 17.2602 9.1314 17.447 8.8207 17.4905C8.50999 17.5339 8.19689 17.4291 7.97505 17.2072L4.47505 13.7072C4.08453 13.3167 4.08453 12.6835 4.47505 12.293C4.86558 11.9025 5.49874 11.9025 5.88927 12.293L8.45216 14.8559L12.8121 7.01416C13.0804 6.53146 13.6893 6.35772 14.172 6.6261Z" fill="#3C3C3C"/>
</g>
</svg>
