<svg width="24" height="24" viewBox="0 0 24 24" fill="none" xmlns="http://www.w3.org/2000/svg">
<path fill-rule="evenodd" clip-rule="evenodd" d="M13.4464 8.93607C13.1535 9.22896 12.6786 9.22896 12.3857 8.93607L9.2603 5.81066L6.13488 8.93607C5.84199 9.22896 5.36712 9.22896 5.07422 8.93607C4.78133 8.64318 4.78133 8.16829 5.07422 7.8754L8.72997 4.21967C9.02286 3.92678 9.49773 3.92678 9.79063 4.21967L13.4464 7.8754C13.7393 8.16829 13.7393 8.64318 13.4464 8.93607ZM10.2627 15.0639C10.5556 14.771 11.0305 14.771 11.3234 15.0639L14.4488 18.1894L17.5742 15.0639C17.8671 14.771 18.342 14.771 18.6349 15.0639C18.9278 15.3568 18.9278 15.8317 18.6349 16.1246L14.9791 19.7803C14.6862 20.0732 14.2114 20.0732 13.9185 19.7803L10.2627 16.1246C9.96984 15.8317 9.96984 15.3568 10.2627 15.0639Z" fill="#3C3C3C"/>
</svg>
