<svg width="25" height="24" viewBox="0 0 25 24" fill="none" xmlns="http://www.w3.org/2000/svg">
<path fill-rule="evenodd" clip-rule="evenodd" d="M10.9718 8.93607C11.2647 9.22896 11.7396 9.22896 12.0325 8.93607L15.1579 5.81066L18.2833 8.93607C18.5762 9.22896 19.0511 9.22896 19.344 8.93607C19.6369 8.64318 19.6369 8.16831 19.344 7.87542L15.6882 4.21967C15.3954 3.92678 14.9205 3.92678 14.6276 4.21967L10.9718 7.87542C10.679 8.16831 10.679 8.64318 10.9718 8.93607ZM14.1555 15.0639C13.8626 14.771 13.3877 14.771 13.0948 15.0639L9.9694 18.1894L6.84399 15.0639C6.5511 14.771 6.07622 14.771 5.78333 15.0639C5.49044 15.3568 5.49044 15.8317 5.78333 16.1246L9.43907 19.7803C9.73197 20.0732 10.2068 20.0732 10.4997 19.7803L14.1555 16.1246C14.4484 15.8317 14.4484 15.3568 14.1555 15.0639Z" fill="#3C3C3C"/>
</svg>
