<svg width="24" height="24" viewBox="0 0 24 24" fill="none" xmlns="http://www.w3.org/2000/svg">
<g id="attach-2-outline">
<path id="icon" fill-rule="evenodd" clip-rule="evenodd" d="M16.7686 5.57854C15.7473 4.55717 14.6203 4.30508 13.6252 4.46706C12.6767 4.62147 11.9038 5.14013 11.4653 5.57854L6.51553 10.5283C5.90034 11.1435 5.16955 12.2347 4.95327 13.5633C4.72941 14.9384 5.06989 16.5073 6.51553 17.953C7.96117 19.3986 9.53011 19.7391 10.9052 19.5152C12.2338 19.299 13.325 18.5682 13.9402 17.953L18.89 13.0032C19.1829 12.7103 19.1828 12.2354 18.89 11.9425C18.5971 11.6496 18.1222 11.6496 17.8293 11.9425L12.8795 16.8923C12.434 17.3378 11.616 17.8798 10.6642 18.0347C9.75885 18.1821 8.67614 17.9923 7.57619 16.8923C6.47625 15.7924 6.2864 14.7096 6.43378 13.8043C6.58873 12.8525 7.13073 12.0345 7.57619 11.589L12.526 6.6392C12.7947 6.37052 13.2945 6.04065 13.8663 5.94757C14.3915 5.86206 15.0323 5.96352 15.708 6.6392C16.3837 7.31489 16.4851 7.95566 16.3996 8.48092C16.3065 9.05269 15.9767 9.5525 15.708 9.82119L10.7582 14.771C10.6663 14.8629 10.4847 14.9806 10.293 15.0118C10.1478 15.0355 9.94893 15.0224 9.69751 14.771C9.44609 14.5196 9.43302 14.3207 9.45666 14.1756C9.48786 13.9838 9.6056 13.8022 9.69751 13.7103L14.6473 8.76053C14.9402 8.46763 14.9402 7.99276 14.6473 7.69987C14.3544 7.40697 13.8795 7.40697 13.5867 7.69987L8.63685 12.6497C8.37521 12.9113 8.06868 13.3661 7.97615 13.9345C7.87604 14.5495 8.03974 15.2345 8.63685 15.8316C9.23396 16.4288 9.91902 16.5925 10.534 16.4924C11.1024 16.3998 11.5572 16.0933 11.8188 15.8316L16.7686 10.8818C17.2071 10.4434 17.7257 9.67044 17.8801 8.72193C18.0421 7.72691 17.79 6.59992 16.7686 5.57854Z" fill="#3C3C3C"/>
</g>
</svg>
