<svg width="24" height="24" viewBox="0 0 24 24" fill="none" xmlns="http://www.w3.org/2000/svg">
<g id="attach-outline">
<path id="icon" fill-rule="evenodd" clip-rule="evenodd" d="M7.49135 5.43674C8.0804 4.61862 9.05556 3.99997 10.5 3.99997C11.9444 3.99997 12.9196 4.61862 13.5087 5.43674C14.0702 6.21662 14.25 7.12995 14.25 7.74997V14.75C14.25 15.1201 14.1452 15.6584 13.8087 16.1258C13.4446 16.6314 12.8444 17 12 17C11.1556 17 10.5554 16.6314 10.1913 16.1258C9.85484 15.6584 9.75 15.1201 9.75 14.75V7.74997C9.75 7.33576 10.0858 6.99997 10.5 6.99997C10.9142 6.99997 11.25 7.33576 11.25 7.74997V14.75C11.25 14.88 11.2952 15.0917 11.4087 15.2493C11.4946 15.3687 11.6444 15.5 12 15.5C12.3556 15.5 12.5054 15.3687 12.5913 15.2493C12.7048 15.0917 12.75 14.88 12.75 14.75V7.74997C12.75 7.36999 12.6298 6.78332 12.2913 6.3132C11.9804 5.88132 11.4556 5.49997 10.5 5.49997C9.54444 5.49997 9.0196 5.88132 8.70865 6.3132C8.37016 6.78332 8.25 7.36999 8.25 7.74997V14.75C8.25 15.38 8.44516 16.3417 9.00865 17.1243C9.5446 17.8687 10.4444 18.5 12 18.5C13.5556 18.5 14.4554 17.8687 14.9913 17.1243C15.5548 16.3417 15.75 15.38 15.75 14.75V7.74997C15.75 7.33576 16.0858 6.99997 16.5 6.99997C16.9142 6.99997 17.25 7.33576 17.25 7.74997V14.75C17.25 15.6201 16.9952 16.9084 16.2087 18.0008C15.3946 19.1314 14.0444 20.0001 12 20.0001C9.95556 20.0001 8.6054 19.1314 7.79135 18.0008C7.00484 16.9084 6.75 15.6201 6.75 14.75L6.75 7.74997C6.75 7.12995 6.92984 6.21662 7.49135 5.43674Z" fill="#3C3C3C"/>
</g>
</svg>
