<svg width="24" height="24" viewBox="0 0 24 24" fill="none" xmlns="http://www.w3.org/2000/svg">
<path fill-rule="evenodd" clip-rule="evenodd" d="M4 12C4 11.5857 4.33578 11.25 4.75 11.25H8.33624L6.96082 9.87457C6.66794 9.58166 6.66794 9.1068 6.96082 8.8139C7.25372 8.52102 7.72861 8.52102 8.02148 8.8139L10.6772 11.4696C10.9701 11.7625 10.9701 12.2374 10.6772 12.5303L8.02148 15.1861C7.72861 15.4789 7.25372 15.4789 6.96082 15.1861C6.66794 14.8932 6.66794 14.4183 6.96082 14.1254L8.33624 12.75H4.75C4.33578 12.75 4 12.4142 4 12ZM20 12C20 12.4142 19.6642 12.75 19.25 12.75H15.6638L17.0392 14.1254C17.3321 14.4183 17.3321 14.8932 17.0392 15.1861C16.7463 15.4789 16.2714 15.4789 15.9785 15.1861L13.3228 12.5303C13.0299 12.2374 13.0299 11.7625 13.3228 11.4697L15.9785 8.8139C16.2714 8.52102 16.7463 8.52102 17.0392 8.8139C17.3321 9.1068 17.3321 9.58166 17.0392 9.87457L15.6638 11.25H19.25C19.6642 11.25 20 11.5857 20 12Z" fill="#3C3C3C"/>
</svg>
