<svg width="24" height="24" viewBox="0 0 24 24" fill="none" xmlns="http://www.w3.org/2000/svg">
<path fill-rule="evenodd" clip-rule="evenodd" d="M10.1469 12.7501C10.5611 12.7501 10.8969 12.4143 10.8969 12.0001C10.8969 11.5858 10.5611 11.2501 10.1469 11.2501H6.56066L7.93609 9.87463C8.22897 9.58175 8.22897 9.10686 7.93609 8.81396C7.64318 8.52108 7.1683 8.52108 6.87542 8.81396L4.21966 11.4697C3.92678 11.7626 3.92678 12.2375 4.21966 12.5304L6.87542 15.1861C7.1683 15.479 7.64318 15.479 7.93609 15.1861C8.22897 14.8932 8.22897 14.4184 7.93609 14.1255L6.56066 12.7501H10.1469ZM13.8531 11.2501C13.4389 11.2501 13.1031 11.5858 13.1031 12.0001C13.1031 12.4143 13.4389 12.7501 13.8531 12.7501L17.4393 12.7501L16.0639 14.1255C15.771 14.4184 15.771 14.8932 16.0639 15.1861C16.3568 15.479 16.8317 15.479 17.1246 15.1861L19.7803 12.5304C20.0732 12.2375 20.0732 11.7626 19.7803 11.4697L17.1246 8.81396C16.8317 8.52108 16.3568 8.52108 16.0639 8.81396C15.771 9.10686 15.771 9.58175 16.0639 9.87463L17.4393 11.2501L13.8531 11.2501Z" fill="#3C3C3C"/>
</svg>
