<svg width="24" height="24" viewBox="0 0 24 24" fill="none" xmlns="http://www.w3.org/2000/svg">
<g id="backspace-outline">
<path id="icon" fill-rule="evenodd" clip-rule="evenodd" d="M9.5625 5.50002H19.3125V18.5H9.5625L4.6875 12L9.5625 5.50002ZM8.3625 4.60002C8.64578 4.22231 9.09036 4.00002 9.5625 4.00002H19.3125C20.1409 4.00002 20.8125 4.67159 20.8125 5.50002V18.5C20.8125 19.3284 20.1409 20 19.3125 20H9.5625C9.09036 20 8.64578 19.7777 8.3625 19.4L3.4875 12.9C3.0875 12.3667 3.0875 11.6333 3.4875 11.1L8.3625 4.60002ZM11.5376 9.17159C11.2447 8.8787 10.7699 8.8787 10.477 9.17159C10.1841 9.46448 10.1841 9.93936 10.477 10.2322L12.2447 12L10.477 13.7678C10.1841 14.0607 10.1841 14.5356 10.477 14.8284C10.7699 15.1213 11.2447 15.1213 11.5376 14.8284L13.3054 13.0607L15.0732 14.8284C15.3661 15.1213 15.8409 15.1213 16.1338 14.8284C16.4267 14.5356 16.4267 14.0607 16.1338 13.7678L14.366 12L16.1338 10.2322C16.4267 9.93936 16.4267 9.46448 16.1338 9.17159C15.8409 8.8787 15.3661 8.8787 15.0732 9.17159L13.3054 10.9394L11.5376 9.17159Z" fill="#3C3C3C"/>
</g>
</svg>
