<svg width="24" height="24" viewBox="0 0 24 24" fill="none" xmlns="http://www.w3.org/2000/svg">
<g id="brush-outline">
<path id="icon" fill-rule="evenodd" clip-rule="evenodd" d="M10.5183 12.3536L17.2275 5.64431C17.4228 5.44905 17.7394 5.44905 17.9346 5.64431L18.3556 6.06527C18.5508 6.26053 18.5508 6.57711 18.3556 6.77237L11.6463 13.4816C11.3348 13.7931 10.8298 13.7931 10.5183 13.4816C10.2068 13.1701 10.2068 12.6651 10.5183 12.3536ZM8.80377 12.6208C8.86665 12.1353 9.0846 11.6659 9.45761 11.2929L16.1669 4.58365C16.9479 3.8026 18.2142 3.8026 18.9953 4.58365L19.4162 5.00461C20.1973 5.78566 20.1973 7.05199 19.4162 7.83303L12.707 14.5423C12.334 14.9153 11.8647 15.1332 11.3792 15.1961C11.7151 16.4248 11.4048 17.7943 10.4422 18.7569C9.80798 19.3911 8.96301 19.7706 8.06758 19.8232L5.05673 20.0003C4.45901 20.0355 3.96458 19.5411 3.99974 18.9433L4.17685 15.9325C4.22952 15.0371 4.60896 14.1921 5.24322 13.5578C6.20573 12.5953 7.57512 12.285 8.80377 12.6208ZM7.9795 18.3258L5.53018 18.4699L5.67426 16.0206C5.70536 15.4919 5.92939 14.993 6.30388 14.6185C7.14315 13.7792 8.52209 13.7786 9.37178 14.6283C10.2215 15.478 10.2208 16.8569 9.38157 17.6962C9.00709 18.0707 8.50819 18.2947 7.9795 18.3258Z" fill="#3C3C3C"/>
</g>
</svg>
