<svg width="24" height="24" viewBox="0 0 24 24" fill="none" xmlns="http://www.w3.org/2000/svg">
<path fill-rule="evenodd" clip-rule="evenodd" d="M12 3.98425C12.4142 3.98425 12.75 4.31995 12.75 4.73425V4.98425C12.75 5.39856 12.4142 5.73425 12 5.73425C11.5858 5.73425 11.25 5.39856 11.25 4.98425V4.73425C11.25 4.31995 11.5858 3.98425 12 3.98425ZM8.25 11.7657C8.25 9.6947 9.92892 8.01575 12 8.01575C14.0711 8.01575 15.75 9.6947 15.75 11.7657C15.75 13.2369 14.9028 14.5118 13.6662 15.1263C13.4113 15.2531 13.25 15.5133 13.25 15.798V18.5157H10.75V15.798C10.75 15.5133 10.5888 15.2531 10.3338 15.1263C9.0972 14.5118 8.25 13.2369 8.25 11.7657ZM12 6.51575C9.10049 6.51575 6.75 8.86633 6.75 11.7657C6.75 13.6581 7.75116 15.3153 9.25 16.2386V19.2657C9.25 19.6801 9.58578 20.0157 10 20.0157H14C14.4142 20.0157 14.75 19.6801 14.75 19.2657V16.2386C16.2488 15.3151 17.25 13.6581 17.25 11.7657C17.25 8.86633 14.8995 6.51575 12 6.51575ZM18.25 11.9843C18.25 11.5699 18.5858 11.2343 19 11.2343H19.25C19.6642 11.2343 20 11.5699 20 11.9843C20 12.3986 19.6642 12.7343 19.25 12.7343H19C18.5858 12.7343 18.25 12.3986 18.25 11.9843ZM4.75 11.2343C4.33578 11.2343 4 11.5699 4 11.9843C4 12.3986 4.33578 12.7343 4.75 12.7343H5C5.41422 12.7343 5.75 12.3986 5.75 11.9843C5.75 11.5699 5.41422 11.2343 5 11.2343H4.75ZM6.10355 5.23206C5.81064 4.93909 5.33578 4.93909 5.04288 5.23206C4.75 5.52478 4.75 5.99988 5.04288 6.2926L6.21967 7.46936C6.51254 7.76233 6.98743 7.76233 7.2803 7.46936C7.57321 7.17664 7.57321 6.70178 7.2803 6.40881L6.10355 5.23206ZM18.9556 5.23206C18.6627 4.93909 18.1878 4.93909 17.8949 5.23206L16.7182 6.40881C16.4253 6.70178 16.4253 7.17664 16.7182 7.46936C17.011 7.76233 17.4859 7.76233 17.7788 7.46936L18.9556 6.2926C19.2485 5.99988 19.2485 5.52478 18.9556 5.23206Z" fill="#3C3C3C"/>
</svg>
