<svg width="24" height="24" viewBox="0 0 24 24" fill="none" xmlns="http://www.w3.org/2000/svg">
<path fill-rule="evenodd" clip-rule="evenodd" d="M12.5289 8.32042L10.6444 4.62193C8.42184 5.02729 6.53777 6.41526 5.46278 8.32042H12.5289ZM3.48756 9.07042C3.57543 8.81503 3.67448 8.56483 3.78411 8.32042C5.022 5.56066 7.60956 3.53791 10.7068 3.09222C10.9704 3.05428 11.2377 3.02777 11.5083 3.01321C11.6711 3.00444 11.835 3 12 3C14.7455 3 17.2038 4.22932 18.8546 6.16755C19.0287 6.37193 19.1938 6.58419 19.3493 6.80373C20.389 8.27153 21 10.0644 21 12C21 13.0038 20.8357 13.9692 20.5324 14.8708C20.4466 15.1261 20.3496 15.3763 20.242 15.6208C19.0863 18.2478 16.7114 20.2173 13.8339 20.813C13.5731 20.867 13.3081 20.9097 13.0396 20.9406C12.6985 20.9798 12.3516 21 12 21C9.22339 21 6.74046 19.7426 5.08953 17.7662C4.91736 17.5601 4.75423 17.3462 4.60076 17.125C3.59148 15.6706 3 13.9044 3 12C3 10.9744 3.17156 9.98879 3.48756 9.07042ZM5.46848 15.6897C4.85164 14.6005 4.5 13.3424 4.5 12C4.5 11.2399 4.61261 10.5085 4.8212 9.82042H9.0166L5.46848 15.6897ZM6.42131 17.0129C7.7962 18.542 9.78558 19.5 12 19.5C12.0653 19.5 12.1304 19.4992 12.1953 19.4975L8.61694 13.381L6.42131 17.0129ZM9.5001 11.9201L10.7876 14.1208H13.2656L14.4591 12.1086L13.2932 9.82042H10.7694L9.5001 11.9201ZM15.3646 10.5817L12.2682 4.5047C14.3485 4.5777 16.2124 5.49666 17.529 6.93237L15.3646 10.5817ZM18.4943 8.24535L15.0096 14.1208H19.1963C19.3937 13.4499 19.5 12.7386 19.5 12C19.5 10.6309 19.1342 9.34932 18.4943 8.24535ZM18.57 15.6208H11.6652L13.8067 19.2813C15.8543 18.7752 17.5732 17.4249 18.57 15.6208Z" fill="#3C3C3C"/>
</svg>
