<svg width="24" height="24" viewBox="0 0 24 24" fill="none" xmlns="http://www.w3.org/2000/svg">
<g id="chat-msg-square-outline">
<path id="icon" fill-rule="evenodd" clip-rule="evenodd" d="M5.35455 7.02677C5.35455 6.61256 5.69034 6.27677 6.10455 6.27677H17.6046C18.0188 6.27677 18.3546 6.61256 18.3546 7.02677V13.8661C18.3546 14.2803 18.0188 14.6161 17.6046 14.6161H8.22955C8.05052 14.6161 7.87739 14.6801 7.74146 14.7966L5.35455 16.8426V7.02677ZM6.10455 4.77676C4.86191 4.77676 3.85455 5.78413 3.85455 7.02677V18.4733C3.85455 18.7661 4.02506 19.0322 4.29116 19.1546C4.55726 19.277 4.87026 19.2333 5.09265 19.0427L8.507 16.1161H17.6046C18.8472 16.1161 19.8546 15.1087 19.8546 13.8661V7.02677C19.8546 5.78413 18.8472 4.77676 17.6046 4.77676H6.10455ZM7.85455 11.6965C8.54491 11.6965 9.10455 11.1368 9.10455 10.4465C9.10455 9.75611 8.54491 9.19646 7.85455 9.19646C7.1642 9.19646 6.60455 9.75611 6.60455 10.4465C6.60455 11.1368 7.1642 11.6965 7.85455 11.6965ZM11.8546 11.6965C12.5449 11.6965 13.1046 11.1368 13.1046 10.4465C13.1046 9.75611 12.5449 9.19646 11.8546 9.19646C11.1642 9.19646 10.6046 9.75611 10.6046 10.4465C10.6046 11.1368 11.1642 11.6965 11.8546 11.6965ZM17.1046 10.4465C17.1046 11.1368 16.5449 11.6965 15.8546 11.6965C15.1642 11.6965 14.6046 11.1368 14.6046 10.4465C14.6046 9.75611 15.1642 9.19646 15.8546 9.19646C16.5449 9.19646 17.1046 9.75611 17.1046 10.4465Z" fill="#3C3C3C"/>
</g>
</svg>
