<svg width="24" height="24" viewBox="0 0 24 24" fill="none" xmlns="http://www.w3.org/2000/svg">
<g id="checkmark-square-2-outline">
<path id="icon" fill-rule="evenodd" clip-rule="evenodd" d="M18.5 17.5V11.5367L20 9.82243V17.5C20 18.8807 18.8807 20 17.5 20H6.5C5.11929 20 4 18.8807 4 17.5V6.5C4 5.11929 5.11929 4 6.5 4H16.4576L15.1451 5.5H6.5C5.94772 5.5 5.5 5.94772 5.5 6.5V17.5C5.5 18.0523 5.94772 18.5 6.5 18.5H17.5C18.0523 18.5 18.5 18.0523 18.5 17.5ZM19.8144 6.24389C20.0872 5.93216 20.0556 5.45834 19.7439 5.18558C19.4322 4.91282 18.9583 4.9444 18.6856 5.25613L12.2135 12.6528L9.78033 10.2197C9.48744 9.92679 9.01256 9.92679 8.71967 10.2197C8.42678 10.5126 8.42678 10.9874 8.71967 11.2803L11.7197 14.2803C11.8664 14.4271 12.0675 14.5065 12.275 14.4996C12.4824 14.4927 12.6777 14.4001 12.8144 14.2439L19.8144 6.24389Z" fill="#3C3C3C"/>
</g>
</svg>
