<svg width="24" height="24" viewBox="0 0 24 24" fill="none" xmlns="http://www.w3.org/2000/svg">
<g id="checkmark-square-outline">
<path id="icon" fill-rule="evenodd" clip-rule="evenodd" d="M6.5 5.5H17.5C18.0523 5.5 18.5 5.94772 18.5 6.5V17.5C18.5 18.0523 18.0523 18.5 17.5 18.5H6.5C5.94772 18.5 5.5 18.0523 5.5 17.5V6.5C5.5 5.94772 5.94772 5.5 6.5 5.5ZM4 6.5C4 5.11929 5.11929 4 6.5 4H17.5C18.8807 4 20 5.11929 20 6.5V17.5C20 18.8807 18.8807 20 17.5 20H6.5C5.11929 20 4 18.8807 4 17.5V6.5ZM15.893 8.1113C16.2458 8.32839 16.3558 8.79035 16.1387 9.14312L12.1387 15.6431C12.0184 15.8385 11.8153 15.9682 11.5874 15.9949C11.3595 16.0217 11.1319 15.9426 10.9696 15.7804L7.96964 12.7804C7.67675 12.4875 7.67675 12.0126 7.96964 11.7197C8.26253 11.4268 8.73741 11.4268 9.0303 11.7197L11.3589 14.0483L14.8612 8.35697C15.0783 8.0042 15.5403 7.89421 15.893 8.1113Z" fill="#3C3C3C"/>
</g>
</svg>
