<svg width="24" height="24" viewBox="0 0 24 24" fill="none" xmlns="http://www.w3.org/2000/svg">
<g id="check-circle-outline">
<path id="icon" fill-rule="evenodd" clip-rule="evenodd" d="M18.5 12C18.5 15.5899 15.5899 18.5 12 18.5C8.41015 18.5 5.5 15.5899 5.5 12C5.5 8.41015 8.41015 5.5 12 5.5C15.5899 5.5 18.5 8.41015 18.5 12ZM20 12C20 16.4183 16.4183 20 12 20C7.58172 20 4 16.4183 4 12C4 7.58172 7.58172 4 12 4C16.4183 4 20 7.58172 20 12ZM15.3198 9.8714C15.5501 9.52711 15.4577 9.06132 15.1134 8.83102C14.7691 8.60072 14.3033 8.69313 14.073 9.03742L11.2044 13.3259L9.86189 11.8297C9.58527 11.5213 9.11109 11.4957 8.80278 11.7723C8.49448 12.0489 8.46879 12.5231 8.74541 12.8314L10.7327 15.0463C10.8874 15.2187 11.113 15.31 11.3441 15.2936C11.5751 15.2772 11.7856 15.155 11.9143 14.9625L15.3198 9.8714Z" fill="#3C3C3C"/>
</g>
</svg>
