<svg width="24" height="24" viewBox="0 0 24 24" fill="none" xmlns="http://www.w3.org/2000/svg">
<g id="check-circle-alt-outline">
<path id="icon" fill-rule="evenodd" clip-rule="evenodd" d="M12 18.5C15.5899 18.5 18.5 15.5899 18.5 12C18.5 11.411 18.4217 10.8403 18.2748 10.2977L19.3672 9.20154C19.3991 9.16951 19.4299 9.13674 19.4595 9.10332C19.8085 10.0015 20 10.9784 20 12C20 16.4183 16.4183 20 12 20C7.58172 20 4 16.4183 4 12C4 7.58172 7.58172 4 12 4C13.7954 4 15.4526 4.59143 16.7876 5.59009C16.5678 5.69717 16.3619 5.84216 16.1797 6.02503L15.6117 6.59498C14.5788 5.90336 13.3365 5.5 12 5.5C8.41015 5.5 5.5 8.41015 5.5 12C5.5 15.5899 8.41015 18.5 12 18.5ZM18.3047 8.14269C18.597 7.84928 18.5962 7.37441 18.3028 7.08203C18.0094 6.78965 17.5345 6.79047 17.2422 7.08388L11.4774 12.8687L9.91437 10.8657C9.65955 10.5391 9.18825 10.481 8.8617 10.7358C8.53514 10.9906 8.47699 11.4619 8.73181 11.7885L10.8176 14.4614C10.9499 14.631 11.1488 14.7356 11.3635 14.7486C11.5783 14.7617 11.7883 14.6818 11.9401 14.5294L18.3047 8.14269Z" fill="#3C3C3C"/>
</g>
</svg>
