<svg width="24" height="24" viewBox="0 0 24 24" fill="none" xmlns="http://www.w3.org/2000/svg">
<path fill-rule="evenodd" clip-rule="evenodd" d="M12 5.5C15.5899 5.5 18.5 8.41015 18.5 12C18.5 15.5899 15.5899 18.5 12 18.5C8.41015 18.5 5.5 15.5899 5.5 12C5.5 8.41015 8.41015 5.5 12 5.5ZM12 4C16.4183 4 20 7.58172 20 12C20 16.4183 16.4183 20 12 20C7.58172 20 4 16.4183 4 12C4 7.58172 7.58172 4 12 4ZM8.17327 11.2501C7.75905 11.2501 7.42327 11.5858 7.42327 12.0001C7.42327 12.4143 7.75905 12.7501 8.17327 12.7501L14.0122 12.7501L12.1358 14.6303C11.8432 14.9235 11.8437 15.3984 12.1369 15.691C12.4301 15.9835 12.905 15.9831 13.1976 15.6899L16.351 12.5298C16.6432 12.2371 16.6432 11.763 16.351 11.4703L13.1976 8.31029C12.905 8.01709 12.4301 8.0166 12.1369 8.30919C11.8437 8.60178 11.8432 9.07665 12.1358 9.36985L14.0121 11.2501L8.17327 11.2501Z" fill="#3C3C3C"/>
</svg>
