<svg width="24" height="24" viewBox="0 0 24 24" fill="none" xmlns="http://www.w3.org/2000/svg">
<path fill-rule="evenodd" clip-rule="evenodd" d="M12 18.5C8.41015 18.5 5.5 15.5898 5.5 12C5.5 8.41015 8.41015 5.5 12 5.5C15.5899 5.5 18.5 8.41015 18.5 12C18.5 15.5899 15.5899 18.5 12 18.5ZM12 20C7.58172 20 4 16.4183 4 12C4 7.58172 7.58172 4 12 4C16.4183 4 20 7.58172 20 12C20 16.4183 16.4183 20 12 20ZM15.8267 12.7499C16.2409 12.7499 16.5767 12.4142 16.5767 11.9999C16.5767 11.5857 16.2409 11.2499 15.8267 11.2499L9.98784 11.2499L11.8642 9.3697C12.1568 9.0765 12.1563 8.60163 11.8631 8.30904C11.5699 8.01645 11.095 8.01695 10.8024 8.31014L7.64896 11.4702C7.3568 11.7629 7.3568 12.237 7.64896 12.5297L10.8024 15.6897C11.095 15.9829 11.5699 15.9834 11.8631 15.6908C12.1563 15.3982 12.1568 14.9233 11.8642 14.6301L9.98785 12.7499H15.8267Z" fill="#3C3C3C"/>
</svg>
