<svg width="24" height="24" viewBox="0 0 24 24" fill="none" xmlns="http://www.w3.org/2000/svg">
<path fill-rule="evenodd" clip-rule="evenodd" d="M5.5 12C5.5 8.41015 8.41015 5.5 12 5.5C15.5899 5.5 18.5 8.41015 18.5 12C18.5 15.5899 15.5899 18.5 12 18.5C8.41015 18.5 5.5 15.5898 5.5 12ZM4 12C4 7.58172 7.58172 4 12 4C16.4183 4 20 7.58172 20 12C20 16.4183 16.4183 20 12 20C7.58172 20 4 16.4183 4 12ZM11.25 15.8267C11.25 16.2409 11.5858 16.5767 12 16.5767C12.4142 16.5767 12.75 16.2409 12.75 15.8267L12.75 9.98784L14.6302 11.8642C14.9234 12.1568 15.3983 12.1563 15.6909 11.8631C15.9835 11.5699 15.983 11.095 15.6898 10.8024L12.5298 7.64896C12.237 7.3568 11.763 7.3568 11.4702 7.64896L8.31023 10.8024C8.01703 11.095 8.01654 11.5699 8.30913 11.8631C8.60172 12.1563 9.07659 12.1568 9.36979 11.8642L11.25 9.98785L11.25 15.8267Z" fill="#3C3C3C"/>
</svg>
