<svg width="24" height="24" viewBox="0 0 24 24" fill="none" xmlns="http://www.w3.org/2000/svg">
<path fill-rule="evenodd" clip-rule="evenodd" d="M18.5 12C18.5 15.5899 15.5899 18.5 12 18.5C8.41015 18.5 5.5 15.5899 5.5 12C5.5 8.41015 8.41015 5.5 12 5.5C15.5899 5.5 18.5 8.41015 18.5 12ZM20 12C20 16.4183 16.4183 20 12 20C7.58172 20 4 16.4183 4 12C4 7.58172 7.58172 4 12 4C16.4183 4 20 7.58172 20 12ZM12.75 8.17327C12.75 7.75905 12.4142 7.42327 12 7.42327C11.5858 7.42327 11.25 7.75905 11.25 8.17327L11.25 14.0122L9.36976 12.1358C9.07656 11.8432 8.60169 11.8437 8.3091 12.1369C8.01651 12.4301 8.01701 12.905 8.3102 13.1976L11.4702 16.351C11.763 16.6432 12.237 16.6432 12.5298 16.351L15.6898 13.1976C15.983 12.905 15.9835 12.4301 15.6909 12.1369C15.3983 11.8437 14.9234 11.8432 14.6302 12.1358L12.75 14.0121V8.17327Z" fill="#3C3C3C"/>
</svg>
