<svg width="24" height="24" viewBox="0 0 24 24" fill="none" xmlns="http://www.w3.org/2000/svg">
<g id="close-thin-outline">
<path id="icon" fill-rule="evenodd" clip-rule="evenodd" d="M16.7729 8.2877C17.0658 7.99481 17.0658 7.51993 16.7729 7.22704C16.4801 6.93415 16.0052 6.93415 15.7123 7.22704L12 10.9394L8.28766 7.22704C7.99477 6.93415 7.5199 6.93415 7.227 7.22704C6.93411 7.51993 6.93411 7.99481 7.227 8.2877L10.9393 12L7.227 15.7123C6.93411 16.0052 6.93411 16.4801 7.227 16.773C7.5199 17.0659 7.99477 17.0659 8.28766 16.773L12 13.0607L15.7123 16.773C16.0052 17.0659 16.4801 17.0659 16.7729 16.773C17.0658 16.4801 17.0658 16.0052 16.7729 15.7123L13.0606 12L16.7729 8.2877Z" fill="#3C3C3C"/>
</g>
</svg>
