<svg width="24" height="24" viewBox="0 0 24 24" fill="none" xmlns="http://www.w3.org/2000/svg">
<g id="close-circle-outline">
<path id="icon" fill-rule="evenodd" clip-rule="evenodd" d="M6.5 5.5H17.5C18.0523 5.5 18.5 5.94772 18.5 6.5V17.5C18.5 18.0523 18.0523 18.5 17.5 18.5H6.5C5.94772 18.5 5.5 18.0523 5.5 17.5V6.5C5.5 5.94772 5.94772 5.5 6.5 5.5ZM4 6.5C4 5.11929 5.11929 4 6.5 4H17.5C18.8807 4 20 5.11929 20 6.5V17.5C20 18.8807 18.8807 20 17.5 20H6.5C5.11929 20 4 18.8807 4 17.5V6.5ZM10.2322 9.17157C9.93935 8.87868 9.46448 8.87868 9.17158 9.17157C8.87869 9.46447 8.87869 9.93934 9.17158 10.2322L10.9393 12L9.17157 13.7678C8.87868 14.0607 8.87868 14.5355 9.17157 14.8284C9.46447 15.1213 9.93934 15.1213 10.2322 14.8284L12 13.0607L13.7678 14.8284C14.0607 15.1213 14.5355 15.1213 14.8284 14.8284C15.1213 14.5355 15.1213 14.0607 14.8284 13.7678L13.0607 12L14.8284 10.2322C15.1213 9.93935 15.1213 9.46447 14.8284 9.17158C14.5355 8.87869 14.0607 8.87869 13.7678 9.17158L12 10.9393L10.2322 9.17157Z" fill="#3C3C3C"/>
</g>
</svg>
