<svg width="24" height="24" viewBox="0 0 24 24" fill="none" xmlns="http://www.w3.org/2000/svg">
<g id="close-circle-outline">
<path id="icon" fill-rule="evenodd" clip-rule="evenodd" d="M18.5 12C18.5 15.5899 15.5899 18.5 12 18.5C8.41015 18.5 5.5 15.5899 5.5 12C5.5 8.41015 8.41015 5.5 12 5.5C15.5899 5.5 18.5 8.41015 18.5 12ZM20 12C20 16.4183 16.4183 20 12 20C7.58172 20 4 16.4183 4 12C4 7.58172 7.58172 4 12 4C16.4183 4 20 7.58172 20 12ZM10.0303 8.96967C9.73744 8.67678 9.26256 8.67678 8.96967 8.96967C8.67678 9.26256 8.67678 9.73744 8.96967 10.0303L10.9393 12L8.96967 13.9697C8.67678 14.2626 8.67678 14.7374 8.96967 15.0303C9.26256 15.3232 9.73744 15.3232 10.0303 15.0303L12 13.0607L13.9697 15.0303C14.2626 15.3232 14.7374 15.3232 15.0303 15.0303C15.3232 14.7374 15.3232 14.2626 15.0303 13.9697L13.0607 12L15.0303 10.0303C15.3232 9.73744 15.3232 9.26256 15.0303 8.96967C14.7374 8.67678 14.2626 8.67678 13.9697 8.96967L12 10.9393L10.0303 8.96967Z" fill="#3C3C3C"/>
</g>
</svg>
