<svg width="25" height="24" viewBox="0 0 25 24" fill="none" xmlns="http://www.w3.org/2000/svg">
<path fill-rule="evenodd" clip-rule="evenodd" d="M7.66821 12.5C7.254 12.5 6.91821 12.1642 6.91821 11.75L6.91821 6.56066L5.69854 7.78033C5.40565 8.07322 4.93078 8.07322 4.63788 7.78033C4.34499 7.48744 4.34499 7.01256 4.63788 6.71967L7.13788 4.21967C7.43077 3.92678 7.90565 3.92678 8.19854 4.21967L10.6985 6.71967C10.9914 7.01256 10.9914 7.48744 10.6985 7.78033C10.4056 8.07322 9.93077 8.07322 9.63788 7.78033L8.41821 6.56066L8.41821 11.75C8.41821 12.1642 8.08242 12.5 7.66821 12.5ZM12.9182 18.5V14.5H18.9182V18.5H12.9182ZM11.4182 14C11.4182 13.4477 11.8659 13 12.4182 13H19.4182C19.9705 13 20.4182 13.4477 20.4182 14V19C20.4182 19.5523 19.9705 20 19.4182 20H12.4182C11.8659 20 11.4182 19.5523 11.4182 19V14Z" fill="#3C3C3C"/>
</svg>
