<svg width="24" height="24" viewBox="0 0 24 24" fill="none" xmlns="http://www.w3.org/2000/svg">
<path fill-rule="evenodd" clip-rule="evenodd" d="M6.99999 5.25C5.48121 5.25 4.24999 6.48122 4.24999 8V16C4.24999 17.5188 5.48121 18.75 6.99999 18.75C7.4142 18.75 7.74999 18.4142 7.74999 18C7.74999 17.5858 7.4142 17.25 6.99999 17.25C6.30964 17.25 5.74999 16.6904 5.74999 16V8C5.74999 7.30964 6.30964 6.75 6.99999 6.75C7.4142 6.75 7.74999 6.41421 7.74999 6C7.74999 5.58579 7.4142 5.25 6.99999 5.25ZM11.3531 11.25C10.9389 11.25 10.6031 11.5858 10.6031 12C10.6031 12.4143 10.9389 12.75 11.3531 12.75L17.1893 12.75L14.8139 15.1255C14.521 15.4183 14.521 15.8932 14.8139 16.1861C15.1068 16.479 15.5817 16.479 15.8746 16.1861L19.5303 12.5304C19.8232 12.2375 19.8232 11.7626 19.5303 11.4697L15.8746 7.81397C15.5817 7.52107 15.1068 7.52107 14.8139 7.81397C14.521 8.10686 14.521 8.58173 14.8139 8.87463L17.1893 11.25L11.3531 11.25Z" fill="#3C3C3C"/>
</svg>
