<svg width="24" height="24" viewBox="0 0 24 24" fill="none" xmlns="http://www.w3.org/2000/svg">
<path fill-rule="evenodd" clip-rule="evenodd" d="M19.2003 10.7197C19.2003 11.1339 18.8646 11.4697 18.4503 11.4697L13.2803 11.4697C12.8661 11.4697 12.5303 11.1339 12.5303 10.7197L12.5303 5.54966C12.5303 5.13545 12.8661 4.79966 13.2803 4.79966C13.6946 4.79966 14.0303 5.13545 14.0303 5.54966L14.0303 8.909L18.6893 4.25L19.75 5.31066L15.091 9.96966L18.4503 9.96966C18.8646 9.96966 19.2003 10.3054 19.2003 10.7197ZM5.31066 19.75L4.25 18.6893L8.90902 14.0303L5.54968 14.0303C5.13547 14.0303 4.79968 13.6945 4.79968 13.2803C4.79968 12.8661 5.13547 12.5303 5.54968 12.5303L10.7197 12.5303C11.1339 12.5303 11.4697 12.8661 11.4697 13.2803L11.4697 18.4503C11.4697 18.8645 11.1339 19.2003 10.7197 19.2003C10.3055 19.2003 9.96968 18.8645 9.96968 18.4503L9.96968 15.091L5.31066 19.75Z" fill="#3C3C3C"/>
</svg>
