<svg width="24" height="24" viewBox="0 0 24 24" fill="none" xmlns="http://www.w3.org/2000/svg">
<g id="color-picker-outline">
<path id="icon" fill-rule="evenodd" clip-rule="evenodd" d="M12.5514 7.42594C12.2585 7.13304 11.7836 7.13304 11.4907 7.42594C11.1978 7.71883 11.1978 8.1937 11.4907 8.4866L11.5793 8.57514L5.30198 14.8524C5.12114 15.0333 5.04492 15.2938 5.09975 15.5436L5.31967 16.5454L4.0849 18.9027C3.93047 19.1976 3.98881 19.5589 4.22818 19.7901C4.46755 20.0214 4.83068 20.0672 5.12 19.9027L7.37934 18.618L8.4267 18.8931C8.68459 18.9608 8.95904 18.8866 9.14758 18.698L15.4249 12.4207L15.5134 12.5093C15.8063 12.8022 16.2812 12.8022 16.5741 12.5093C16.867 12.2164 16.867 11.7415 16.5741 11.4486L16.4855 11.3601L19.2043 8.64132C20.2662 7.57938 20.2662 5.85765 19.2043 4.79572C18.1424 3.73378 16.4206 3.73378 15.3587 4.79572L12.6399 7.51448L12.5514 7.42594ZM6.65287 15.6229L12.6399 9.6358L14.3642 11.3601L8.39136 17.3329L7.66189 17.1413C7.34606 17.0584 7.01031 17.1023 6.72644 17.2637L6.59873 17.3363L6.69067 17.1608C6.82713 16.9003 6.86736 16.6 6.80431 16.3128L6.65287 15.6229Z" fill="#3C3C3C"/>
</g>
</svg>
