<svg width="24" height="24" viewBox="0 0 24 24" fill="none" xmlns="http://www.w3.org/2000/svg">
<path fill-rule="evenodd" clip-rule="evenodd" d="M5.5 12C5.5 8.41015 8.41015 5.5 12 5.5C15.5898 5.5 18.5 8.41015 18.5 12C18.5 15.5899 15.5898 18.5 12 18.5C8.41015 18.5 5.5 15.5899 5.5 12ZM12 4C7.58172 4 4 7.58172 4 12C4 16.4183 7.58172 20 12 20C16.4183 20 20 16.4183 20 12C20 7.58172 16.4183 4 12 4ZM10.4294 13.5706L11.3813 11.3813L13.5706 10.4294L12.6187 12.6187L10.4294 13.5706ZM10.6213 10.6213L14.1553 9.08468L15.5 8.5L14.9153 9.84467L13.3787 13.3787L9.84467 14.9153L8.5 15.5L9.08468 14.1553L10.6213 10.6213Z" fill="#3C3C3C"/>
</svg>
