<svg width="24" height="24" viewBox="0 0 24 24" fill="none" xmlns="http://www.w3.org/2000/svg">
<path fill-rule="evenodd" clip-rule="evenodd" d="M5.5 11.9999C5.5 8.4101 8.41015 5.49994 12 5.49994C15.5899 5.49994 18.5 8.4101 18.5 11.9999C18.5 15.5898 15.5899 18.4999 12 18.4999C8.41015 18.4999 5.5 15.5898 5.5 11.9999ZM12 3.99994C7.58172 3.99994 4 7.58173 4 11.9999C4 16.4182 7.58172 19.9999 12 19.9999C16.4183 19.9999 20 16.4182 20 11.9999C20 7.58173 16.4183 3.99994 12 3.99994ZM10.6213 10.6213L15.5 8.49994L13.3787 13.3786L8.5 15.4999L10.6213 10.6213ZM12.5 11.9999C12.5 12.2761 12.2761 12.4999 12 12.4999C11.7239 12.4999 11.5 12.2761 11.5 11.9999C11.5 11.7238 11.7239 11.4999 12 11.4999C12.2761 11.4999 12.5 11.7238 12.5 11.9999Z" fill="#3C3C3C"/>
</svg>
