<svg width="24" height="24" viewBox="0 0 24 24" fill="none" xmlns="http://www.w3.org/2000/svg">
<path fill-rule="evenodd" clip-rule="evenodd" d="M5.39583 10.6014C5.21727 10.5137 5.08083 10.3587 5.01653 10.1705L4.15808 7.65731C4.02419 7.26533 4.23341 6.83903 4.62539 6.70514C5.01737 6.57125 5.44367 6.78047 5.57756 7.17245L5.8086 7.84885C5.94287 7.6282 6.08918 7.41452 6.24702 7.20881C6.82244 6.45891 7.53993 5.82969 8.35852 5.35708C9.17711 4.88447 10.0808 4.57772 11.0179 4.45434C11.554 4.38377 12.095 4.37398 12.6308 4.42433C13.0432 4.46308 13.3461 4.82881 13.3073 5.2412C13.2686 5.6536 12.9029 5.9565 12.4905 5.91775C12.0663 5.8779 11.6381 5.88564 11.2137 5.94151C10.4719 6.03917 9.75652 6.282 9.10852 6.65612C8.46052 7.03024 7.89256 7.52833 7.43705 8.12195C7.29981 8.30082 7.17358 8.4873 7.0589 8.68034L7.99704 8.35989C8.38902 8.226 8.81532 8.43522 8.94921 8.8272C9.0831 9.21917 8.87388 9.64547 8.4819 9.77936L5.9687 10.6378C5.78046 10.7021 5.5744 10.689 5.39583 10.6014ZM16.8371 9.76455L16.9746 8.88995C17.0655 9.0588 17.148 9.23243 17.2216 9.41025C17.508 10.1015 17.6554 10.8425 17.6554 11.5907C17.6554 12.3389 17.508 13.0799 17.2216 13.7711C17.0361 14.219 16.7947 14.6403 16.5038 15.0253C16.2541 15.3558 16.3196 15.8261 16.6501 16.0758C16.9806 16.3255 17.451 16.26 17.7006 15.9295C18.0681 15.4431 18.3731 14.9109 18.6075 14.3452C18.9692 13.4719 19.1554 12.5359 19.1554 11.5907C19.1554 10.6455 18.9692 9.7095 18.6075 8.83622C18.4961 8.56744 18.3688 8.30621 18.2265 8.05387L19.0158 8.17801C19.425 8.24236 19.8088 7.96282 19.8732 7.55364C19.9376 7.14445 19.658 6.76057 19.2488 6.69622L16.6253 6.28361C16.4288 6.2527 16.2281 6.30113 16.0673 6.41822C15.9065 6.53531 15.7988 6.71148 15.7679 6.90798L15.3553 9.5315C15.2909 9.94068 15.5705 10.3246 15.9796 10.3889C16.3888 10.4533 16.7727 10.1737 16.8371 9.76455ZM6.74187 13.8846C6.5751 13.5054 6.13254 13.3332 5.75338 13.5C5.37422 13.6668 5.20204 14.1093 5.36881 14.4885C5.60052 15.0153 5.89511 15.5136 6.24706 15.9723C6.82248 16.7222 7.53996 17.3514 8.35855 17.824C9.17714 18.2966 10.0808 18.6034 11.0179 18.7268C11.3359 18.7686 11.6556 18.7891 11.9749 18.7883L11.4426 19.5057C11.1958 19.8383 11.2653 20.3081 11.598 20.5549C11.9306 20.8017 12.4004 20.7322 12.6472 20.3995L14.2297 18.2668C14.3483 18.107 14.3985 17.9068 14.3694 17.71C14.3501 17.5798 14.2971 17.4583 14.2173 17.3566C14.1712 17.2977 14.1169 17.2466 14.0566 17.2043L11.9416 15.635C11.609 15.3882 11.1392 15.4577 10.8924 15.7904C10.6456 16.123 10.7151 16.5928 11.0478 16.8396L11.6407 17.2795C11.4981 17.2716 11.3557 17.2583 11.2137 17.2396C10.4719 17.1419 9.75655 16.8991 9.10855 16.525C8.46055 16.1509 7.89259 15.6528 7.43709 15.0591C7.15848 14.6961 6.92529 14.3016 6.74187 13.8846Z" fill="#3C3C3C"/>
</svg>
