<svg width="24" height="24" viewBox="0 0 24 24" fill="none" xmlns="http://www.w3.org/2000/svg">
<g id="download-outline">
<path id="icon" fill-rule="evenodd" clip-rule="evenodd" d="M16.186 10.6231C16.4789 10.3302 16.4789 9.85532 16.186 9.56243C15.8931 9.26953 15.4183 9.26953 15.1254 9.56243L12.75 11.9378L12.7501 4.7515C12.7501 4.33729 12.4143 4.0015 12.0001 4.0015C11.5859 4.00149 11.2501 4.33727 11.2501 4.75149L11.25 11.9379L8.87453 9.56243C8.58164 9.26953 8.10677 9.26953 7.81387 9.56243C7.52098 9.85532 7.52098 10.3302 7.81387 10.6231L11.4696 14.2788C11.7625 14.5717 12.2374 14.5717 12.5303 14.2788L16.186 10.6231ZM5.5 15.2485C5.5 14.8343 5.16421 14.4985 4.75 14.4985C4.33579 14.4985 4 14.8343 4 15.2485V18.9485C4 19.5284 4.4701 19.9985 5.05 19.9985H18.95C19.5299 19.9985 20 19.5284 20 18.9485V15.2485C20 14.8343 19.6642 14.4985 19.25 14.4985C18.8358 14.4985 18.5 14.8343 18.5 15.2485V18.4985H5.5V15.2485Z" fill="#3C3C3C"/>
</g>
</svg>
