<svg width="24" height="24" viewBox="0 0 24 24" fill="none" xmlns="http://www.w3.org/2000/svg">
<path fill-rule="evenodd" clip-rule="evenodd" d="M12 5.5C8.41015 5.5 5.5 8.41015 5.5 12C5.5 13.414 5.95068 14.7209 6.71669 15.7873C8.06763 15.8595 8.94813 15.6865 9.5159 15.4241C10.1015 15.1534 10.392 14.7715 10.546 14.3562C10.7105 13.9126 10.7323 13.3909 10.6874 12.8575C10.6654 12.5953 10.6286 12.3439 10.5913 12.1088C10.5842 12.0643 10.5768 12.0189 10.5694 11.9731C10.5402 11.7935 10.5103 11.6091 10.4949 11.4604C10.4239 10.7738 10.446 10.1798 10.8079 9.63232C10.9743 9.38064 11.1886 9.17556 11.415 8.98958C11.6349 8.809 11.9027 8.6177 12.1973 8.40732L12.2139 8.39544C12.3158 8.32266 12.4401 8.17439 12.5615 7.91089C12.6805 7.65264 12.7754 7.32984 12.8457 6.9703C12.9386 6.49543 12.9807 5.99744 12.9923 5.57516C12.6691 5.5257 12.3378 5.5 12 5.5ZM14.4753 5.98772C14.4507 6.39024 14.4018 6.82846 14.3178 7.25813C14.2334 7.69016 14.1089 8.13702 13.9239 8.53859C13.7412 8.9349 13.477 9.33661 13.0857 9.61604C12.7705 9.84125 12.5434 10.0039 12.367 10.1487C12.1931 10.2916 12.1075 10.3865 12.0592 10.4595C11.9918 10.5614 11.9259 10.7158 11.987 11.3061C11.9975 11.4075 12.0177 11.5326 12.0453 11.703C12.0537 11.7553 12.0629 11.8118 12.0726 11.8732C12.1117 12.119 12.1554 12.4137 12.1821 12.7319C12.2349 13.3592 12.2278 14.1352 11.9524 14.8778C11.6665 15.6487 11.106 16.3415 10.1453 16.7856C9.60829 17.0339 8.96175 17.1975 8.18929 17.2665C9.26023 18.0429 10.5766 18.5 12 18.5C12.8512 18.5 13.663 18.3367 14.4068 18.0401C13.7476 16.7892 13.5556 15.8589 13.8373 15.047C13.9972 14.5864 14.2856 14.2463 14.5319 13.9816C14.6099 13.8977 14.6827 13.8221 14.7519 13.7502C14.9227 13.5728 15.0715 13.4181 15.2223 13.2194C15.6766 12.6205 15.7256 12.4277 15.7514 12.2726C15.765 12.191 15.7708 12.1249 15.7792 12.0275C15.7851 11.9593 15.7924 11.8758 15.8046 11.7608C15.8309 11.5135 15.8744 11.2107 15.9715 10.8103C16.1903 9.90746 16.8432 9.44661 17.4764 9.25495C17.6014 9.21708 17.7276 9.18876 17.8526 9.1684C17.1583 7.73628 15.9534 6.59703 14.4753 5.98772ZM18.3546 10.6257C18.2062 10.629 18.0515 10.6481 17.9109 10.6906C17.6479 10.7702 17.4922 10.9042 17.4292 11.1637C17.3502 11.4897 17.3167 11.7262 17.2962 11.9193C17.2911 11.967 17.2861 12.0223 17.2808 12.0814C17.2681 12.222 17.2535 12.3844 17.231 12.5192C17.1468 13.0244 16.9316 13.4481 16.4173 14.126C16.2085 14.4012 15.9702 14.6486 15.7837 14.8422C15.7269 14.9011 15.6749 14.9551 15.6301 15.0033C15.4136 15.236 15.3072 15.3868 15.2544 15.5388C15.1765 15.7633 15.1457 16.2187 15.7266 17.3264C17.4047 16.1501 18.5 14.2025 18.5 12C18.5 11.5279 18.4498 11.0682 18.3546 10.6257ZM4 12C4 7.58172 7.58172 4 12 4C12.6599 4 13.3021 4.08006 13.9171 4.23134C16.6725 4.90923 18.8646 7.01248 19.6688 9.7152C19.8844 10.4401 20 11.2072 20 12C20 15.0375 18.3069 17.6784 15.8166 19.0325C14.6815 19.6497 13.3805 20 12 20C9.464 20 7.20332 18.8191 5.73886 16.9802C4.65072 15.6139 4 13.8819 4 12Z" fill="#3C3C3C"/>
</svg>
