<svg width="24" height="24" viewBox="0 0 24 24" fill="none" xmlns="http://www.w3.org/2000/svg">
<g id="edit-outline">
<path id="icon" fill-rule="evenodd" clip-rule="evenodd" d="M6.32433 14.6266C6.32847 14.5575 6.35781 14.4922 6.4068 14.4432L12.0786 8.77139L14.9071 11.5998L9.23523 17.2717C9.18623 17.3206 9.12098 17.35 9.05182 17.3541L6.15083 17.5276L6.32433 14.6266ZM15.9677 10.5392L13.1393 7.71073L14.1665 6.68351C14.4789 6.37112 14.9854 6.37112 15.2978 6.68351L16.9949 8.38067C17.3073 8.69306 17.3073 9.19955 16.9949 9.51194L15.9677 10.5392ZM5.34614 13.3826C5.03773 13.691 4.85304 14.1017 4.82701 14.5371L4.63085 17.8169C4.58921 18.5131 5.16533 19.0892 5.86154 19.0476L9.14137 18.8514C9.57675 18.8254 9.98748 18.6407 10.2959 18.3323L16.4981 12.1301L18.0556 10.5726C18.9538 9.67442 18.9538 8.21819 18.0556 7.32001L16.3584 5.62285C15.4603 4.72467 14.004 4.72467 13.1059 5.62285L11.5483 7.1804L5.34614 13.3826ZM15.2537 17.5512C14.8395 17.5512 14.5037 17.8869 14.5037 18.3012C14.5037 18.7154 14.8395 19.0512 15.2537 19.0512H18.6213C19.0355 19.0512 19.3713 18.7154 19.3713 18.3012C19.3713 17.8869 19.0355 17.5512 18.6213 17.5512H15.2537Z" fill="#3C3C3C"/>
</g>
</svg>
