<svg width="24" height="24" viewBox="0 0 24 24" fill="none" xmlns="http://www.w3.org/2000/svg">
<path fill-rule="evenodd" clip-rule="evenodd" d="M18.75 7C19.1642 7 19.5 7.33579 19.5 7.75V12.75C19.5 14.2688 18.2688 15.5 16.75 15.5H7.06066L9.78033 18.2197C10.0732 18.5126 10.0732 18.9874 9.78033 19.2803C9.48744 19.5732 9.01256 19.5732 8.71967 19.2803L4.71967 15.2803C4.42678 14.9874 4.42678 14.5126 4.71967 14.2197L8.71967 10.2197C9.01256 9.92678 9.48744 9.92678 9.78033 10.2197C10.0732 10.5126 10.0732 10.9874 9.78033 11.2803L7.06066 14H16.75C17.4404 14 18 13.4404 18 12.75V7.75C18 7.33579 18.3358 7 18.75 7Z" fill="#3C3C3C"/>
</svg>
