<svg width="24" height="24" viewBox="0 0 24 24" fill="none" xmlns="http://www.w3.org/2000/svg">
<path fill-rule="evenodd" clip-rule="evenodd" d="M19 5.25C17.4812 5.25 16.25 6.48122 16.25 8V16C16.25 17.5188 17.4812 18.75 19 18.75C19.4142 18.75 19.75 18.4142 19.75 18C19.75 17.5858 19.4142 17.25 19 17.25C18.3097 17.25 17.75 16.6904 17.75 16V8C17.75 7.30964 18.3097 6.75 19 6.75C19.4142 6.75 19.75 6.41421 19.75 6C19.75 5.58579 19.4142 5.25 19 5.25ZM6.81065 12.75H12.6469C13.0611 12.75 13.3969 12.4142 13.3969 12C13.3969 11.5857 13.0611 11.25 12.6469 11.25H6.81065L9.18606 8.87455C9.47896 8.58166 9.47896 8.10678 9.18606 7.81389C8.89317 7.521 8.4183 7.521 8.1254 7.81389L4.46966 11.4696C4.17677 11.7625 4.17677 12.2374 4.46966 12.5303L8.1254 16.186C8.4183 16.4789 8.89317 16.4789 9.18606 16.186C9.47896 15.8931 9.47896 15.4183 9.18606 15.1254L6.81065 12.75Z" fill="#3C3C3C"/>
</svg>
