<svg width="24" height="24" viewBox="0 0 24 24" fill="none" xmlns="http://www.w3.org/2000/svg">
<path fill-rule="evenodd" clip-rule="evenodd" d="M13.83 4.25C13.4158 4.25 13.08 4.58579 13.08 5C13.08 5.41421 13.4158 5.75 13.83 5.75H17.1893L12.5303 10.409L13.591 11.4697L18.25 6.81066V10.17C18.25 10.5842 18.5858 10.92 19 10.92C19.4142 10.92 19.75 10.5842 19.75 10.17V5C19.75 4.58579 19.4142 4.25 19 4.25H13.83ZM11.4697 13.591L10.409 12.5303L5.75 17.1893V13.83C5.75 13.4158 5.41421 13.08 5 13.08C4.58579 13.08 4.25 13.4158 4.25 13.83V19C4.25 19.4142 4.58579 19.75 5 19.75H10.17C10.5842 19.75 10.92 19.4142 10.92 19C10.92 18.5858 10.5842 18.25 10.17 18.25H6.81066L11.4697 13.591Z" fill="#3C3C3C"/>
</svg>
