<svg width="24" height="24" viewBox="0 0 24 24" fill="none" xmlns="http://www.w3.org/2000/svg">
<path fill-rule="evenodd" clip-rule="evenodd" d="M12.5303 4.46967C12.2374 4.17678 11.7626 4.17678 11.4697 4.46967L4.46967 11.4697C4.17678 11.7626 4.17678 12.2374 4.46967 12.5303C4.76256 12.8232 5.23744 12.8232 5.53033 12.5303L12 6.06066L18.4697 12.5303C18.7626 12.8232 19.2374 12.8232 19.5303 12.5303C19.8232 12.2374 19.8232 11.7626 19.5303 11.4697L12.5303 4.46967ZM19.5303 18.4697L12.5303 11.4697C12.2374 11.1768 11.7626 11.1768 11.4697 11.4697L4.46967 18.4697C4.17678 18.7626 4.17678 19.2374 4.46967 19.5303C4.76256 19.8232 5.23744 19.8232 5.53033 19.5303L12 13.0607L18.4697 19.5303C18.7626 19.8232 19.2374 19.8232 19.5303 19.5303C19.8232 19.2374 19.8232 18.7626 19.5303 18.4697Z" fill="#3C3C3C"/>
</svg>
