<svg width="24" height="24" viewBox="0 0 24 24" fill="none" xmlns="http://www.w3.org/2000/svg">
<path fill-rule="evenodd" clip-rule="evenodd" d="M4.54039 11.5404C4.28655 11.7942 4.28655 12.2058 4.54039 12.4596L11.5404 19.4596C11.7942 19.7134 12.2058 19.7134 12.4596 19.4596C12.7135 19.2058 12.7135 18.7942 12.4596 18.5404L5.91924 12L12.4596 5.4596C12.7135 5.20575 12.7135 4.7942 12.4596 4.54036C12.2058 4.28652 11.7942 4.28652 11.5404 4.54036L4.54039 11.5404ZM18.5404 4.54036L11.5404 11.5404C11.2865 11.7942 11.2865 12.2058 11.5404 12.4596L18.5404 19.4596C18.7942 19.7134 19.2058 19.7134 19.4596 19.4596C19.7135 19.2058 19.7135 18.7942 19.4596 18.5404L12.9192 12L19.4596 5.4596C19.7135 5.20575 19.7135 4.7942 19.4596 4.54036C19.2058 4.28652 18.7942 4.28652 18.5404 4.54036Z" fill="#3C3C3C"/>
</svg>
