<svg width="24" height="24" viewBox="0 0 24 24" fill="none" xmlns="http://www.w3.org/2000/svg">
<path fill-rule="evenodd" clip-rule="evenodd" d="M4.54037 4.54042C4.79421 4.28658 5.20577 4.28658 5.45961 4.54042L12.4596 11.5404C12.7135 11.7943 12.7135 12.2058 12.4596 12.4597L5.45961 19.4597C5.20577 19.7135 4.79421 19.7135 4.54037 19.4597C4.28653 19.2058 4.28653 18.7943 4.54037 18.5404L11.0808 12L4.54037 5.45966C4.28653 5.20582 4.28653 4.79426 4.54037 4.54042ZM11.5404 4.54042C11.7942 4.28658 12.2058 4.28658 12.4596 4.54042L19.4596 11.5404C19.7135 11.7943 19.7135 12.2058 19.4596 12.4597L12.4596 19.4597C12.2058 19.7135 11.7942 19.7135 11.5404 19.4597C11.2865 19.2058 11.2865 18.7943 11.5404 18.5404L18.0808 12L11.5404 5.45966C11.2865 5.20582 11.2865 4.79426 11.5404 4.54042Z" fill="#3C3C3C"/>
</svg>
