<svg width="24" height="24" viewBox="0 0 24 24" fill="none" xmlns="http://www.w3.org/2000/svg">
<path fill-rule="evenodd" clip-rule="evenodd" d="M4.46967 5.53033L11.4697 12.5303C11.7626 12.8232 12.2374 12.8232 12.5303 12.5303L19.5303 5.53033C19.8232 5.23744 19.8232 4.76256 19.5303 4.46967C19.2374 4.17678 18.7626 4.17678 18.4697 4.46967L12 10.9393L5.53033 4.46967C5.23744 4.17678 4.76256 4.17678 4.46967 4.46967C4.17678 4.76256 4.17678 5.23744 4.46967 5.53033ZM4.46967 12.5303L11.4697 19.5303C11.7626 19.8232 12.2374 19.8232 12.5303 19.5303L19.5303 12.5303C19.8232 12.2374 19.8232 11.7626 19.5303 11.4697C19.2374 11.1768 18.7626 11.1768 18.4697 11.4697L12 17.9393L5.53033 11.4697C5.23744 11.1768 4.76256 11.1768 4.46967 11.4697C4.17678 11.7626 4.17678 12.2374 4.46967 12.5303Z" fill="#3C3C3C"/>
</svg>
