<svg width="24" height="24" viewBox="0 0 24 24" fill="none" xmlns="http://www.w3.org/2000/svg">
<g id="external-link-outline">
<path id="icon" fill-rule="evenodd" clip-rule="evenodd" d="M20.25 11.4497C19.8358 11.4497 19.5 11.114 19.5 10.6997V6.56066L14.0628 11.9978C13.7699 12.2907 13.295 12.2907 13.0022 11.9978C12.7093 11.705 12.7093 11.2301 13.0022 10.9372L18.4393 5.5L14.3003 5.5C13.886 5.5 13.5503 5.16421 13.5503 4.75C13.5503 4.33579 13.886 4 14.3003 4H20.25C20.6642 4 21 4.33579 21 4.75V10.6997C21 11.114 20.6642 11.4497 20.25 11.4497ZM6 7.5H9.6C9.82091 7.5 10 7.32091 10 7.1V6.4C10 6.17909 9.82091 6 9.6 6H6C4.34315 6 3 7.34315 3 9V17C3 18.6569 4.34315 20 6 20H16C17.6569 20 19 18.6569 19 17V15.4C19 15.1791 18.8209 15 18.6 15H17.9C17.6791 15 17.5 15.1791 17.5 15.4V17C17.5 17.8284 16.8284 18.5 16 18.5H6C5.17157 18.5 4.5 17.8284 4.5 17V9C4.5 8.17157 5.17157 7.5 6 7.5Z" fill="#3C3C3C"/>
</g>
</svg>
