<svg width="24" height="24" viewBox="0 0 24 24" fill="none" xmlns="http://www.w3.org/2000/svg">
<g id="eye-view-on-outline">
<path id="icon" fill-rule="evenodd" clip-rule="evenodd" d="M18.4488 11.902C18.4654 11.9428 18.4771 11.9753 18.4853 12C18.4771 12.0247 18.4654 12.0572 18.4488 12.098C18.385 12.2542 18.2753 12.4671 18.11 12.724C17.7797 13.2372 17.2796 13.8447 16.6451 14.4245C15.3515 15.6063 13.6968 16.5 12 16.5C10.3032 16.5 8.64845 15.6063 7.35492 14.4245C6.72041 13.8447 6.22032 13.2372 5.89001 12.724C5.72467 12.4671 5.61503 12.2542 5.55125 12.098C5.53459 12.0572 5.52286 12.0247 5.51468 12C5.52286 11.9753 5.53459 11.9428 5.55125 11.902C5.61503 11.7458 5.72467 11.5329 5.89001 11.276C6.22032 10.7628 6.72041 10.1553 7.35492 9.57554C8.64845 8.39369 10.3032 7.5 12 7.5C13.6968 7.5 15.3515 8.39369 16.6451 9.57554C17.2796 10.1553 17.7797 10.7628 18.11 11.276C18.2753 11.5329 18.385 11.7458 18.4488 11.902ZM20 12C20 13.4183 16.4183 18 12 18C7.58172 18 4 13.4183 4 12C4 10.5817 7.58172 6 12 6C16.4183 6 20 10.5817 20 12ZM13.5 12C13.5 12.8284 12.8284 13.5 12 13.5C11.1716 13.5 10.5 12.8284 10.5 12C10.5 11.1716 11.1716 10.5 12 10.5C12.8284 10.5 13.5 11.1716 13.5 12ZM15 12C15 13.6569 13.6569 15 12 15C10.3431 15 9 13.6569 9 12C9 10.3431 10.3431 9 12 9C13.6569 9 15 10.3431 15 12Z" fill="#3C3C3C"/>
</g>
</svg>
