<svg width="24" height="24" viewBox="0 0 24 24" fill="none" xmlns="http://www.w3.org/2000/svg">
<g id="eye-view-off-outline">
<path id="icon" fill-rule="evenodd" clip-rule="evenodd" d="M6.3451 8.32623L5.93934 7.92047C5.64644 7.62757 5.64644 7.1527 5.93934 6.85981C6.23223 6.56691 6.7071 6.56691 7 6.85981L17 16.8598C17.2929 17.1527 17.2929 17.6276 17 17.9205C16.7071 18.2134 16.2322 18.2134 15.9393 17.9205L15.1321 17.1132C14.1702 17.5699 13.1115 17.8599 12 17.8599C7.58172 17.8599 4 13.2781 4 11.8599C4 11.1504 4.89623 9.64938 6.3451 8.32623ZM13.9905 15.9716C13.3472 16.2176 12.6769 16.3599 12 16.3599C10.3032 16.3599 8.64845 15.4662 7.35492 14.2843C6.72041 13.7046 6.22032 13.0971 5.89001 12.5839C5.72467 12.327 5.61503 12.1141 5.55125 11.9579C5.53459 11.9171 5.52286 11.8846 5.51468 11.8599C5.52286 11.8352 5.53459 11.8026 5.55125 11.7618C5.61503 11.6056 5.72467 11.3927 5.89001 11.1358C6.22032 10.6226 6.72041 10.0151 7.35492 9.4354C7.37222 9.41959 7.38958 9.40384 7.40701 9.38814L9.10163 11.0828C9.03534 11.3306 9 11.5911 9 11.8599C9 13.5167 10.3431 14.8599 12 14.8599C12.2688 14.8599 12.5293 14.8245 12.7771 14.7582L13.9905 15.9716ZM8.86795 6.60648L10.0096 7.74811C10.6529 7.5021 11.3231 7.35986 12 7.35986C13.6968 7.35986 15.3515 8.25355 16.6451 9.4354C17.2796 10.0151 17.7797 10.6226 18.11 11.1358C18.2753 11.3927 18.385 11.6056 18.4488 11.7618C18.4654 11.8026 18.4771 11.8352 18.4853 11.8599C18.4771 11.8846 18.4654 11.9171 18.4488 11.9579C18.385 12.1141 18.2753 12.327 18.11 12.5839C17.7797 13.0971 17.2796 13.7046 16.6451 14.2843L16.593 14.3316L17.6549 15.3935C19.1038 14.0703 20 12.5693 20 11.8599C20 10.4416 16.4183 5.85986 12 5.85986C10.8885 5.85986 9.82988 6.14984 8.86795 6.60648ZM11.2229 8.96147L14.8984 12.6369C14.9647 12.3891 15 12.1286 15 11.8599C15 10.203 13.6569 8.85986 12 8.85986C11.7313 8.85986 11.4708 8.8952 11.2229 8.96147Z" fill="#3C3C3C"/>
</g>
</svg>
