<svg width="24" height="24" viewBox="0 0 24 24" fill="none" xmlns="http://www.w3.org/2000/svg">
<g id="eye-shut-outline">
<path id="icon" fill-rule="evenodd" clip-rule="evenodd" d="M5.89002 12.1204C5.72468 11.8636 5.61504 11.6507 5.55126 11.4945C5.52765 11.4366 5.47252 11.3964 5.41005 11.3964H4.87946C4.39375 11.3964 4.03364 11.7953 4.23879 12.2356C4.63558 13.0871 5.50587 14.2357 6.69077 15.2332L5.72546 16.9052C5.51836 17.2639 5.64126 17.7226 5.99998 17.9297C6.3587 18.1368 6.81739 18.0139 7.0245 17.6552L7.90909 16.123C8.90357 16.7452 10.0375 17.2125 11.25 17.3528V19.25C11.25 19.6642 11.5858 20 12 20C12.4142 20 12.75 19.6642 12.75 19.25V17.3528C13.9625 17.2125 15.0964 16.7453 16.0909 16.123L16.9755 17.6552C17.1826 18.0139 17.6413 18.1368 18 17.9297C18.3587 17.7226 18.4816 17.2639 18.2745 16.9052L17.3092 15.2332C18.4941 14.2357 19.3644 13.0871 19.7612 12.2356C19.9664 11.7953 19.6063 11.3964 19.1206 11.3964H18.59C18.5275 11.3964 18.4724 11.4366 18.4488 11.4945C18.385 11.6507 18.2753 11.8636 18.11 12.1204C17.7797 12.6336 17.2796 13.2412 16.6451 13.8209C15.3516 15.0027 13.6968 15.8964 12 15.8964C10.3032 15.8964 8.64847 15.0027 7.35493 13.8209C6.72042 13.2412 6.22033 12.6336 5.89002 12.1204Z" fill="#3C3C3C"/>
</g>
</svg>
