<svg width="24" height="24" viewBox="0 0 24 24" fill="none" xmlns="http://www.w3.org/2000/svg">
<path fill-rule="evenodd" clip-rule="evenodd" d="M6.5 4.00006C6.91421 4.00006 7.25 4.33585 7.25 4.75006V5.1691L8.04656 5.56738C8.96152 6.02486 10.0385 6.02486 10.9534 5.56738L12.3757 4.85624C13.713 4.18761 15.287 4.18761 16.6243 4.85624L17.8354 5.46181C18.0895 5.58885 18.25 5.84855 18.25 6.13263V13.25C18.25 13.51 18.1154 13.7514 17.8943 13.888C17.6732 14.0247 17.3971 14.0371 17.1646 13.9209L15.9534 13.3153C15.0385 12.8578 13.9615 12.8578 13.0466 13.3153L11.6243 14.0264C10.287 14.6951 8.71299 14.6951 7.37574 14.0264L7.25 13.9636V19.2501C7.25 19.6643 6.91421 20.0001 6.5 20.0001C6.08579 20.0001 5.75 19.6643 5.75 19.2501V4.75006C5.75 4.33585 6.08579 4.00006 6.5 4.00006ZM7.25 12.2865L8.04656 12.6848C8.96152 13.1423 10.0385 13.1423 10.9534 12.6848L12.3757 11.9737C13.713 11.305 15.287 11.305 16.6243 11.9737L16.75 12.0365V6.59615L15.9534 6.19788C15.0385 5.74039 13.9615 5.7404 13.0466 6.19788L11.6243 6.90902C10.287 7.57765 8.71299 7.57765 7.37574 6.90902L7.25 6.84615V12.2865Z" fill="#3C3C3C"/>
</svg>
