<svg width="24" height="24" viewBox="0 0 24 24" fill="none" xmlns="http://www.w3.org/2000/svg">
<path fill-rule="evenodd" clip-rule="evenodd" d="M9.15561 14.2517C9.1556 14.666 8.81981 15.0017 8.4056 15.0017C7.99139 15.0017 7.6556 14.6659 7.65561 14.2517L7.6557 6.55891L5.28031 8.9343C4.98742 9.22719 4.51255 9.22719 4.21965 8.9343C3.92676 8.64141 3.92676 8.16653 4.21965 7.87364L7.8754 4.2179C8.16829 3.92501 8.64316 3.92501 8.93606 4.2179L12.5918 7.87364C12.8847 8.16654 12.8847 8.64141 12.5918 8.9343C12.2989 9.2272 11.824 9.2272 11.5311 8.9343L9.1557 6.55887L9.15561 14.2517ZM14.8442 9.75175C14.8442 9.33754 15.18 9.00175 15.5942 9.00175C16.0085 9.00175 16.3442 9.33753 16.3442 9.75175L16.3443 17.4411L18.7197 15.0656C19.0126 14.7728 19.4875 14.7728 19.7803 15.0656C20.0732 15.3585 20.0732 15.8334 19.7803 16.1263L16.1246 19.782C15.8317 20.0749 15.3568 20.0749 15.0639 19.782L11.4082 16.1263C11.1153 15.8334 11.1153 15.3585 11.4082 15.0656C11.7011 14.7728 12.176 14.7728 12.4689 15.0656L14.8443 17.4411L14.8442 9.75175Z" fill="#3C3C3C"/>
</svg>
