<svg width="24" height="24" viewBox="0 0 24 24" fill="none" xmlns="http://www.w3.org/2000/svg">
<path fill-rule="evenodd" clip-rule="evenodd" d="M14.8443 14.2482C14.8443 14.6624 15.18 14.9982 15.5943 14.9982C16.0085 14.9982 16.3443 14.6624 16.3443 14.2482L16.3443 6.55888L18.7197 8.9343C19.0126 9.2272 19.4875 9.2272 19.7804 8.9343C20.0733 8.64141 20.0733 8.16654 19.7804 7.87364L16.1246 4.2179C15.8317 3.92501 15.3569 3.92501 15.064 4.2179L11.4082 7.87364C11.1153 8.16653 11.1153 8.64141 11.4082 8.9343C11.7011 9.2272 12.176 9.2272 12.4689 8.9343L14.8443 6.5589L14.8443 14.2482ZM9.15562 9.74821C9.15562 9.334 8.81983 8.99821 8.40561 8.99822C7.9914 8.99822 7.65562 9.33402 7.65562 9.74823L7.65572 17.441L5.28033 15.0656C4.98744 14.7728 4.51256 14.7728 4.21967 15.0656C3.92678 15.3585 3.92678 15.8334 4.21967 16.1263L7.87541 19.782C8.1683 20.0749 8.64318 20.0749 8.93607 19.782L12.5918 16.1263C12.8847 15.8334 12.8847 15.3585 12.5918 15.0656C12.2989 14.7728 11.824 14.7728 11.5312 15.0656L9.15572 17.4411L9.15562 9.74821Z" fill="#3C3C3C"/>
</svg>
