<svg width="24" height="24" viewBox="0 0 24 24" fill="none" xmlns="http://www.w3.org/2000/svg">
<path fill-rule="evenodd" clip-rule="evenodd" d="M17.1246 4.34723C16.8317 4.05434 16.3569 4.05434 16.064 4.34723C15.7711 4.64013 15.7711 5.115 16.064 5.40789L17.4396 6.78356L16.2671 6.78373C14.5921 6.78396 13.0734 7.76804 12.3888 9.29681L12.0001 10.1649L11.6112 9.29628C10.9265 7.76732 9.40757 6.7832 7.73232 6.7832H4.74994C4.33573 6.7832 3.99994 7.11899 3.99994 7.5332C3.99994 7.94741 4.33573 8.2832 4.74994 8.2832L7.73232 8.2832C8.81631 8.2832 9.79917 8.91998 10.2422 9.90931L11.1784 12L10.2422 14.0907C9.79917 15.08 8.81631 15.7168 7.73232 15.7168L4.74994 15.7168C4.33573 15.7168 3.99994 16.0526 3.99994 16.4668C3.99994 16.881 4.33573 17.2168 4.74994 17.2168H7.73232C9.40757 17.2168 10.9265 16.2327 11.6112 14.7037L12.0001 13.8351L12.3888 14.7032C13.0734 16.2319 14.5921 17.216 16.2671 17.2163L17.4396 17.2164L16.064 18.5921C15.7711 18.885 15.7711 19.3599 16.064 19.6528C16.3569 19.9457 16.8317 19.9457 17.1246 19.6528L19.7804 16.997C20.0733 16.7041 20.0733 16.2293 19.7804 15.9364L17.1246 13.2806C16.8317 12.9877 16.3569 12.9877 16.064 13.2806C15.7711 13.5735 15.7711 14.0484 16.064 14.3413L17.4391 15.7164L16.2673 15.7163C15.1835 15.7161 14.2008 15.0794 13.7578 14.0902L12.8219 12L13.7578 9.90984C14.2008 8.92064 15.1835 8.28388 16.2673 8.28373L17.4391 8.28356L16.064 9.65872C15.7711 9.95161 15.7711 10.4265 16.064 10.7194C16.3569 11.0123 16.8317 11.0123 17.1246 10.7194L19.7804 8.06363C20.0733 7.77074 20.0733 7.29587 19.7804 7.00297L17.1246 4.34723Z" fill="#3C3C3C"/>
</svg>
