<svg width="24" height="24" viewBox="0 0 24 24" fill="none" xmlns="http://www.w3.org/2000/svg">
<g id="folder-remove-outline">
<path id="icon" fill-rule="evenodd" clip-rule="evenodd" d="M6.63537 16.5065V7.49371H10.0822L11.3089 8.77295C11.5447 9.01877 11.8705 9.15776 12.2111 9.15776L17.3646 9.15772V16.5065L6.63537 16.5065ZM6.13537 5.99371C5.58309 5.99371 5.13538 6.44143 5.13538 6.99371V17.0065C5.13538 17.5588 5.58309 18.0065 6.13538 18.0065L17.6146 18.0065C18.305 18.0065 18.8646 17.4468 18.8646 16.7565V8.65772C18.8646 8.10543 18.4169 7.65771 17.8646 7.65771L12.3177 7.65776L11.091 6.37852C10.8552 6.1327 10.5294 5.99371 10.1888 5.99371H6.13537ZM8 12.5401C8 12.1259 8.33578 11.7901 8.74999 11.7901H15.25C15.6642 11.7901 16 12.1259 16 12.5401C16 12.9543 15.6642 13.2901 15.25 13.2901L8.74999 13.2901C8.33578 13.2901 8 12.9543 8 12.5401Z" fill="#3C3C3C"/>
</g>
</svg>
