<svg width="24" height="24" viewBox="0 0 24 24" fill="none" xmlns="http://www.w3.org/2000/svg">
<g id="folder-add-outline">
<path id="icon" fill-rule="evenodd" clip-rule="evenodd" d="M6.63537 16.5065V7.49371H10.0822L11.3089 8.77294C11.5447 9.01877 11.8705 9.15776 12.2111 9.15775L17.3646 9.15772V16.5065L15.5 16.5065L14.75 16.5065L14.75 18.0065L15.5 18.0065L17.6146 18.0065C18.305 18.0065 18.8646 17.4468 18.8646 16.7565V8.65771C18.8646 8.10543 18.4169 7.65771 17.8646 7.65771L12.3177 7.65775L11.091 6.37852C10.8552 6.1327 10.5294 5.99371 10.1888 5.99371H6.13537C5.58309 5.99371 5.13538 6.44143 5.13538 6.99371V17.0065C5.13538 17.5588 5.58309 18.0065 6.13538 18.0065L8.52531 18.0065L9.27531 18.0065L9.2753 16.5065L8.52531 16.5065L6.63537 16.5065ZM12 10.5401C12.4142 10.5401 12.75 10.8759 12.75 11.2901V13.7901H15.25C15.6642 13.7901 16 14.1259 16 14.5401C16 14.9543 15.6642 15.2901 15.25 15.2901H12.75V17.7901C12.75 18.2043 12.4142 18.5401 12 18.5401C11.5858 18.5401 11.25 18.2043 11.25 17.7901V15.2901H8.74999C8.33578 15.2901 8 14.9543 8 14.5401C8 14.1259 8.33578 13.7901 8.74999 13.7901L11.25 13.7901V11.2901C11.25 10.8759 11.5858 10.5401 12 10.5401Z" fill="#3C3C3C"/>
</g>
</svg>
