<svg width="24" height="24" viewBox="0 0 24 24" fill="none" xmlns="http://www.w3.org/2000/svg">
<g id="folder-outline">
<path id="icon" fill-rule="evenodd" clip-rule="evenodd" d="M6.63538 7.49359V16.5064L17.3646 16.5064V9.15759L12.2111 9.15763C11.8705 9.15764 11.5447 9.01865 11.3089 8.77282L10.0822 7.49359H6.63538ZM5.13538 6.99359C5.13538 6.44131 5.58309 5.99359 6.13538 5.99359H10.1888C10.5294 5.99359 10.8552 6.13258 11.091 6.3784L12.3177 7.65763L17.8646 7.65759C18.4169 7.65759 18.8646 8.10531 18.8646 8.65759V16.7564C18.8646 17.4467 18.305 18.0064 17.6146 18.0064L6.13538 18.0064C5.58309 18.0064 5.13538 17.5587 5.13538 17.0064V6.99359Z" fill="#3C3C3C"/>
</g>
</svg>
