<svg width="24" height="24" viewBox="0 0 24 24" fill="none" xmlns="http://www.w3.org/2000/svg">
<g id="funnel-outline">
<path id="icon" fill-rule="evenodd" clip-rule="evenodd" d="M10.9983 12.3328L7.29925 5.6745L10.9983 12.3328ZM7.29925 5.6745H16.7007L13.0017 12.3328C12.8366 12.6299 12.75 12.9642 12.75 13.3041V17.6252L11.25 16.7919V13.3041C11.25 12.9642 11.1634 12.6299 10.9983 12.3328M6.4495 4.1745H17.5505C18.313 4.1745 18.7949 4.99361 18.4246 5.66014L14.3129 13.0612C14.2716 13.1355 14.25 13.2191 14.25 13.3041V19.3247C14.25 19.706 13.8404 19.947 13.5072 19.7618L10.0072 17.8174C9.84843 17.7292 9.74998 17.5619 9.74998 17.3803V13.3041C9.74998 13.2191 9.72833 13.1355 9.68706 13.0612L5.57534 5.66014C5.20505 4.99361 5.68701 4.1745 6.4495 4.1745Z" fill="#3C3C3C"/>
</g>
</svg>
