<svg width="24" height="24" viewBox="0 0 24 24" fill="none" xmlns="http://www.w3.org/2000/svg">
<path fill-rule="evenodd" clip-rule="evenodd" d="M5.10718 10.3465L4.75394 10.1535L4.20711 9.85475C3.9295 9.70307 3.9295 9.30439 4.20711 9.15271L4.75394 8.85393L5.10718 8.66093L5.12886 8.64908L11.8082 4.9996C11.9277 4.9343 12.0723 4.9343 12.1918 4.9996L18.8711 8.64908L18.8928 8.66093L19.246 8.85393L19.7929 9.15271C20.0705 9.30439 20.0705 9.70307 19.7929 9.85475L19.3103 10.1184V15.0475C19.5157 15.1737 19.6527 15.4005 19.6527 15.6593C19.6527 15.9119 19.5222 16.134 19.3249 16.2618L19.6527 17.1361V19.0493H18.2178V17.1361L18.5457 16.2618C18.3484 16.134 18.2178 15.9119 18.2178 15.6593C18.2178 15.4005 18.3549 15.1737 18.5603 15.0475V10.5282L17.533 11.0895V15.3734C17.533 15.7876 17.1972 16.1234 16.783 16.1234C15.9795 16.1234 15.0967 16.3953 14.2892 16.7708C13.488 17.1435 12.8215 17.5898 12.4685 17.8722C12.1946 18.0913 11.8053 18.0913 11.5314 17.8722C11.1784 17.5898 10.5119 17.1435 9.71067 16.7708C8.90325 16.3953 8.02037 16.1234 7.21696 16.1234C6.80274 16.1234 6.46696 15.7876 6.46696 15.3734V11.0895L5.12886 10.3584L5.10718 10.3465ZM12.1918 14.0079L16.033 11.9091V14.6758C15.1819 14.7915 14.3583 15.0844 13.6566 15.4108C13.0109 15.7111 12.4375 16.0544 12 16.3553C11.5624 16.0544 10.989 15.7111 10.3433 15.4108C9.64161 15.0844 8.818 14.7915 7.96696 14.6758V11.9091L11.8082 14.0079C11.9277 14.0732 12.0723 14.0732 12.1918 14.0079ZM6.69305 9.50373L12 12.4033L17.3069 9.50373L12 6.60411L6.69305 9.50373Z" fill="#3C3C3C"/>
</svg>
