<svg width="24" height="24" viewBox="0 0 24 24" fill="none" xmlns="http://www.w3.org/2000/svg">
<path fill-rule="evenodd" clip-rule="evenodd" d="M11.4697 3.71967C11.7626 3.42678 12.2374 3.42678 12.5303 3.71967L15.5303 6.71967C15.8232 7.01256 15.8232 7.48744 15.5303 7.78033C15.2374 8.07322 14.7626 8.07322 14.4697 7.78033L12.75 6.06066V17.9393L14.4697 16.2197C14.7626 15.9268 15.2374 15.9268 15.5303 16.2197C15.8232 16.5126 15.8232 16.9874 15.5303 17.2803L12.5303 20.2803C12.3897 20.421 12.1989 20.5 12 20.5C11.8011 20.5 11.6103 20.421 11.4697 20.2803L8.46967 17.2803C8.17678 16.9874 8.17678 16.5126 8.46967 16.2197C8.76256 15.9268 9.23744 15.9268 9.53033 16.2197L11.25 17.9393V6.06066L9.53033 7.78033C9.23744 8.07322 8.76256 8.07322 8.46967 7.78033C8.17678 7.48744 8.17678 7.01256 8.46967 6.71967L11.4697 3.71967Z" fill="#3C3C3C"/>
</svg>
