<svg width="24" height="24" viewBox="0 0 24 24" fill="none" xmlns="http://www.w3.org/2000/svg">
<path fill-rule="evenodd" clip-rule="evenodd" d="M5.5 8.40115C5.5 8.26309 5.61194 8.15115 5.75 8.15115L12.4407 8.15115L11.0602 9.5292C10.767 9.8218 10.7666 10.2967 11.0592 10.5898C11.3518 10.883 11.8267 10.8834 12.1199 10.5908L14.7836 7.93197C14.9246 7.79116 15.0038 7.59994 15.0037 7.4006C15.0035 7.20126 14.9241 7.01022 14.7827 6.86959L12.1191 4.21841C11.8254 3.92623 11.3506 3.92733 11.0585 4.22091C10.7662 4.51449 10.7673 4.98934 11.0609 5.28158L12.437 6.65115L5.75 6.65115C4.78345 6.65115 4 7.43466 4 8.40115L4 10.52C4 11.4865 4.78345 12.27 5.75 12.27L7 12.27C7.41418 12.27 7.75 11.9342 7.75 11.52C7.75 11.1058 7.41418 10.77 7 10.77L5.75 10.77C5.61194 10.77 5.5 10.658 5.5 10.52L5.5 8.40115ZM18.5 15.5988C18.5 15.7369 18.3881 15.8488 18.25 15.8488L11.5593 15.8488L12.9398 14.4708C13.233 14.1782 13.2334 13.7033 12.9408 13.4102C12.6482 13.117 12.1733 13.1166 11.8802 13.4092L9.21649 16.068C9.07541 16.2089 8.99619 16.4001 8.99634 16.5994C8.99648 16.7987 9.07597 16.9898 9.21726 17.1304L11.8809 19.7816C12.1745 20.0738 12.6494 20.0727 12.9416 19.7791C13.2338 19.4855 13.2327 19.0106 12.9391 18.7184L11.563 17.3488L18.25 17.3488C19.2165 17.3488 20 16.5653 20 15.5988L20 13.48C20 12.5135 19.2165 11.73 18.25 11.73L17 11.73C16.5858 11.73 16.25 12.0658 16.25 12.48C16.25 12.8942 16.5858 13.23 17 13.23L18.25 13.23C18.3881 13.23 18.5 13.3419 18.5 13.48L18.5 15.5988Z" fill="#3C3C3C"/>
</svg>
