<svg width="24" height="24" viewBox="0 0 24 24" fill="none" xmlns="http://www.w3.org/2000/svg">
<path fill-rule="evenodd" clip-rule="evenodd" d="M7.33661 7.36667C7.33661 7.12748 7.08456 6.92887 6.9087 7.09101C6.46609 7.4991 6.18884 8.08384 6.18884 8.73333V13.7192C6.18884 14.0175 6.56798 14.1448 6.74801 13.9069L7.31276 13.1609C7.3715 13.0833 7.3889 12.983 7.37046 12.8874C7.34824 12.7723 7.33661 12.6533 7.33661 12.5317V7.36667ZM6.18884 16.5111V16.411C6.18884 16.3432 6.21099 16.2773 6.2519 16.2232L7.96998 13.9537C7.9751 13.9469 7.98484 13.9459 7.99127 13.9514C7.99627 13.9556 7.99781 13.9627 7.99504 13.9687L6.6729 16.8219C6.58274 17.0164 6.32516 17.0565 6.25048 16.8555C6.21062 16.7483 6.18884 16.6322 6.18884 16.5111ZM16.3276 17.0581C16.4231 17.2643 16.2726 17.5 16.0453 17.5H7.94787C7.72062 17.5 7.57005 17.2643 7.66559 17.0581L8.80997 14.5885C8.86845 14.4623 9.00363 14.393 9.14264 14.3974C9.16277 14.398 9.18299 14.3984 9.20328 14.3984H14.7966C14.815 14.3984 14.8334 14.3981 14.8517 14.3976C14.9904 14.3935 15.125 14.4629 15.1833 14.5888L16.3276 17.0581ZM17.325 16.8262C17.4149 17.0203 17.6718 17.061 17.7474 16.8609C17.7886 16.7521 17.8111 16.6343 17.8111 16.5111V16.4166C17.8111 16.3488 17.7889 16.2828 17.748 16.2288L16.0275 13.956C16.0223 13.9492 16.0125 13.9481 16.0059 13.9537C16.0008 13.958 15.9992 13.9652 16.002 13.9713L17.325 16.8262ZM16.6287 12.8908C16.6101 12.9866 16.6274 13.0872 16.6863 13.165L17.2519 13.9121C17.4319 14.15 17.8111 14.0226 17.8111 13.7244V8.73333C17.8111 8.08382 17.5338 7.49907 17.0912 7.09098C16.9153 6.92883 16.6632 7.12746 16.6632 7.36667V12.5317C16.6632 12.6545 16.6514 12.7746 16.6287 12.8908ZM4.68884 8.73333C4.68884 6.67147 6.36031 5 8.42218 5H15.5777C17.6396 5 19.3111 6.67147 19.3111 8.73333V16.5111C19.3111 17.8857 18.1968 19 16.8222 19H7.17773C5.80316 19 4.68884 17.8857 4.68884 16.5111V8.73333ZM8.33661 7.36667C8.33661 6.88802 8.72463 6.5 9.20328 6.5H14.7966C15.2752 6.5 15.6632 6.88802 15.6632 7.36667V12.5317C15.6632 13.0104 15.2752 13.3984 14.7966 13.3984H9.20328C8.72463 13.3984 8.33661 13.0103 8.33661 12.5317V7.36667Z" fill="#3C3C3C"/>
</svg>
