<svg width="24" height="24" viewBox="0 0 24 24" fill="none" xmlns="http://www.w3.org/2000/svg">
<path fill-rule="evenodd" clip-rule="evenodd" d="M12.2829 7.98395V6.55968C12.2829 6.56147 12.283 6.56235 12.2832 6.56238C12.2834 6.56242 12.2839 6.5611 12.2848 6.55855C12.2907 6.54229 12.3146 6.47601 12.4119 6.39177C12.5276 6.2916 12.6954 6.21704 12.8909 6.21704C13.0423 6.21704 13.2229 6.28324 13.4245 6.46742C13.6282 6.65347 13.8161 6.92924 13.953 7.24754C14.0284 7.4226 14.0584 7.74381 14.0128 8.20808C13.9694 8.64962 13.8711 9.10906 13.7844 9.51098L13.784 9.51289C13.7643 9.60404 13.745 9.69367 13.7279 9.77666C13.6823 9.99751 13.7384 10.2272 13.8809 10.402C14.0233 10.5768 14.2368 10.6783 14.4624 10.6783H17.7874C18.2697 10.6783 18.6607 11.0693 18.6607 11.5516C18.6607 11.7766 18.5766 11.9801 18.4369 12.1354C18.205 12.3931 18.18 12.7762 18.3764 13.0619C18.454 13.1747 18.4993 13.3105 18.4993 13.4591C18.4993 13.7129 18.3652 13.9361 18.1604 14.0605C17.8215 14.2665 17.7015 14.7007 17.8866 15.0515C17.9281 15.13 17.9519 15.2197 17.9519 15.3171C17.9519 15.5089 17.8581 15.6788 17.7106 15.7836C17.3877 16.0128 17.2987 16.4535 17.5072 16.7901C17.5554 16.8679 17.5834 16.9593 17.5834 17.0594C17.5834 17.3429 17.3536 17.5727 17.0702 17.5727H11.2445L10.3911 17.152V12.0179L10.685 11.8871C11.0847 11.7093 11.3892 11.3624 11.5085 10.9351C11.5657 10.7301 11.6227 10.5215 11.6778 10.3196L11.6781 10.3186C11.8394 9.72822 11.9771 9.22653 12.0783 8.94662C12.12 8.83919 12.1663 8.67911 12.2009 8.53666C12.2345 8.39879 12.2829 8.17563 12.2829 7.98395ZM9.91398 10.5884L10.0669 10.5203C10.1219 10.3234 10.1767 10.1224 10.2311 9.92337L10.2408 9.8879C10.3918 9.33512 10.5464 8.76905 10.6722 8.42418C10.6751 8.41634 10.678 8.40856 10.6812 8.40082C10.6808 8.40162 10.681 8.40126 10.6815 8.39969C10.6834 8.39415 10.6907 8.37345 10.7021 8.33522C10.7152 8.29146 10.7299 8.23787 10.7434 8.18213C10.7571 8.12578 10.7682 8.07319 10.7755 8.03014C10.7804 8.00112 10.7821 7.98501 10.7827 7.97971C10.7828 7.9786 10.7829 7.97796 10.7829 7.97778V6.55591C10.7829 6.02763 11.0762 5.56415 11.43 5.25783C11.7993 4.93801 12.3104 4.71704 12.8909 4.71704C13.5155 4.71704 14.0409 4.99894 14.4361 5.35985C14.8292 5.71888 15.1289 6.18515 15.3309 6.65473C15.5633 7.1948 15.5565 7.83666 15.5056 8.35463C15.478 8.63605 15.4329 8.91782 15.3841 9.17832H17.7874C19.0982 9.17832 20.1607 10.2409 20.1607 11.5516C20.1607 11.9677 20.0532 12.3596 19.8647 12.6999C19.9517 12.9369 19.9993 13.1928 19.9993 13.4591C19.9993 14.034 19.7788 14.557 19.4191 14.9487C19.4406 15.0685 19.4519 15.1916 19.4519 15.3171C19.4519 15.7912 19.2923 16.2279 19.0249 16.5766C19.0632 16.7315 19.0834 16.8933 19.0834 17.0594C19.0834 18.1713 18.1821 19.0727 17.0702 19.0727H11.241C11.0133 19.0727 10.7887 19.0203 10.5845 18.9197L10.1789 18.7198C9.95213 19.0592 9.56547 19.2828 9.12658 19.2828H5.32433C4.5042 19.2828 3.83936 18.618 3.83936 17.7979V12.3538C3.83936 11.6162 4.38067 10.9905 5.11053 10.8843L8.94453 10.3265C9.30721 10.2737 9.65203 10.3798 9.91398 10.5884ZM5.33936 12.3668L8.89107 11.8501V17.7828H5.33936V12.3668Z" fill="#3C3C3C"/>
</svg>
