<svg width="24" height="24" viewBox="0 0 24 24" fill="none" xmlns="http://www.w3.org/2000/svg">
<g id="link-diag-outline">
<path id="icon" fill-rule="evenodd" clip-rule="evenodd" d="M8.28767 10.4089C7.99477 10.1161 7.51991 10.1161 7.22701 10.4089L6.34315 11.2928C4.58577 13.0503 4.58577 15.8994 6.34315 17.6569C8.10048 19.4142 10.9497 19.4142 12.7071 17.6569L13.591 16.7729C13.8839 16.4801 13.8839 16.0051 13.591 15.7123C13.298 15.4194 12.8232 15.4194 12.5303 15.7123L11.6464 16.5962C10.4749 17.7677 8.57533 17.7677 7.40376 16.5962C6.23219 15.4246 6.23219 13.5251 7.40376 12.3535L8.28767 11.4696C8.58058 11.1768 8.58058 10.7019 8.28767 10.4089ZM15.7123 13.5909C15.4194 13.2981 15.4194 12.8232 15.7123 12.5303L16.5962 11.6465C17.7678 10.4749 17.7678 8.57532 16.5962 7.40381C15.4246 6.23218 13.5251 6.23218 12.3535 7.40381L11.4697 8.28772C11.1768 8.58057 10.7019 8.58057 10.409 8.28772C10.1161 7.99475 10.1161 7.5199 10.409 7.22705L11.2929 6.34314C13.0502 4.58582 15.8995 4.58582 17.6568 6.34314C19.4142 8.10046 19.4142 10.9497 17.6568 12.707L16.773 13.5909C16.4801 13.8839 16.0052 13.8839 15.7123 13.5909ZM9.17159 14.8284C8.78102 14.4379 8.78102 13.8047 9.17159 13.4142L13.4142 9.17151C13.8047 8.78101 14.4379 8.78101 14.8284 9.17151C15.2189 9.56213 15.2189 10.1952 14.8284 10.5858L10.5858 14.8284C10.1953 15.2189 9.56209 15.2189 9.17159 14.8284Z" fill="#3C3C3C"/>
</g>
</svg>
