<svg width="24" height="24" viewBox="0 0 24 24" fill="none" xmlns="http://www.w3.org/2000/svg">
<g id="link-outline">
<path id="icon" fill-rule="evenodd" clip-rule="evenodd" d="M9.75 7.49998C10.1642 7.49998 10.5 7.83577 10.5 8.24998C10.5 8.6642 10.1642 8.99998 9.75 8.99998H8.5C6.84315 8.99998 5.5 10.3431 5.5 12C5.5 13.6568 6.84315 15 8.5 15H9.75C10.1642 15 10.5 15.3358 10.5 15.75C10.5 16.1642 10.1642 16.5 9.75 16.5H8.5C6.01472 16.5 4 14.4853 4 12C4 9.5147 6.01472 7.49998 8.5 7.49998H9.75ZM14.25 15C13.8358 15 13.5 15.3358 13.5 15.75C13.5 16.1642 13.8358 16.5 14.25 16.5H15.5C17.9853 16.5 20 14.4853 20 12C20 9.5147 17.9853 7.49998 15.5 7.49998H14.25C13.8358 7.49998 13.5 7.83577 13.5 8.24998C13.5 8.6642 13.8358 8.99998 14.25 8.99998H15.5C17.1569 8.99998 18.5 10.3431 18.5 12C18.5 13.6568 17.1569 15 15.5 15H14.25ZM9 11C8.44772 11 8 11.4477 8 12C8 12.5523 8.44772 13 9 13H15C15.5523 13 16 12.5523 16 12C16 11.4477 15.5523 11 15 11H9Z" fill="#3C3C3C"/>
</g>
</svg>
