<svg width="24" height="24" viewBox="0 0 24 24" fill="none" xmlns="http://www.w3.org/2000/svg">
<path fill-rule="evenodd" clip-rule="evenodd" d="M10.625 12C10.625 12.5523 10.1773 13 9.625 13C9.07272 13 8.625 12.5523 8.625 12C8.625 11.4477 9.07272 11 9.625 11C10.1773 11 10.625 11.4477 10.625 12ZM12.0105 12.75C11.692 13.7643 10.7444 14.5 9.625 14.5C8.24429 14.5 7.125 13.3807 7.125 12C7.125 10.6193 8.24429 9.5 9.625 9.5C10.7444 9.5 11.692 10.2357 12.0105 11.25H12.125L16.125 11.25C16.5392 11.25 16.875 11.5858 16.875 12C16.875 12.4142 16.5392 12.75 16.125 12.75L12.125 12.75H12.0105Z" fill="#3C3C3C"/>
</svg>
