<svg width="24" height="24" viewBox="0 0 24 24" fill="none" xmlns="http://www.w3.org/2000/svg">
<g id="log-in-outline">
<path id="icon" fill-rule="evenodd" clip-rule="evenodd" d="M8.30598 9.36412C9.23497 7.6915 11.0178 6.56232 13.0634 6.56232C16.0665 6.56232 18.501 8.99685 18.501 12C18.501 15.0031 16.0665 17.4377 13.0634 17.4377C11.0178 17.4377 9.23497 16.3085 8.30598 14.6359L6.99466 15.3642C8.17746 17.4938 10.4513 18.9377 13.0634 18.9377C16.8949 18.9377 20.001 15.8316 20.001 12C20.001 8.16842 16.8949 5.06232 13.0634 5.06232C10.4513 5.06232 8.17746 6.5062 6.99466 8.6358L8.30598 9.36412ZM11.207 8.81381C10.9141 9.1067 10.9141 9.58158 11.207 9.87447L12.5825 11.2499L4.74896 11.2499C4.33475 11.2499 3.99896 11.5857 3.99896 11.9999C3.99896 12.4141 4.33475 12.7499 4.74896 12.7499L12.5825 12.7499L11.207 14.1253C10.9141 14.4182 10.9141 14.8931 11.207 15.186C11.4999 15.4789 11.9748 15.4789 12.2677 15.186L14.9235 12.5302C15.2164 12.2373 15.2164 11.7625 14.9235 11.4696L12.2677 8.81381C11.9748 8.52091 11.4999 8.52091 11.207 8.81381Z" fill="#3C3C3C"/>
</g>
</svg>
