<svg width="24" height="24" viewBox="0 0 24 24" fill="none" xmlns="http://www.w3.org/2000/svg">
<g id="log-out-outline">
<path id="icon" fill-rule="evenodd" clip-rule="evenodd" d="M9.76743 7.67465C10.6819 6.97658 11.8232 6.56232 13.0634 6.56232C16.0665 6.56232 18.501 8.99685 18.501 12C18.501 15.0031 16.0665 17.4377 13.0634 17.4377C11.8232 17.4377 10.6819 17.0234 9.76743 16.3253L8.85729 17.5177C10.0241 18.4083 11.483 18.9377 13.0634 18.9377C16.8949 18.9377 20.001 15.8316 20.001 12C20.001 8.16842 16.8949 5.06232 13.0634 5.06232C11.483 5.06232 10.0241 5.59165 8.85729 6.48232L9.76743 7.67465ZM7.93503 15.186C8.22793 14.8931 8.22793 14.4182 7.93503 14.1253L6.55962 12.7499H14.3931C14.8073 12.7499 15.1431 12.4141 15.1431 11.9999C15.1431 11.5857 14.8073 11.2499 14.3931 11.2499H6.55962L7.93503 9.8745C8.22792 9.58161 8.22792 9.10673 7.93503 8.81384C7.64214 8.52094 7.16727 8.52094 6.87437 8.81384L4.21863 11.4696C3.92574 11.7625 3.92574 12.2374 4.21863 12.5303L6.87437 15.186C7.16727 15.4789 7.64214 15.4789 7.93503 15.186Z" fill="#3C3C3C"/>
</g>
</svg>
