<svg width="24" height="24" viewBox="0 0 24 24" fill="none" xmlns="http://www.w3.org/2000/svg">
<path fill-rule="evenodd" clip-rule="evenodd" d="M8.58594 6.84731L5.5 5.97981V17.3635L8.58594 18.231V6.84731ZM10.0859 18.2308V6.84724L13.918 5.76921V17.1528L10.0859 18.2308ZM9.33594 20L4.36469 18.6025C4.14902 18.5419 4 18.3452 4 18.1212V4.65994C4 4.32863 4.31637 4.08894 4.63531 4.17859L9.33594 5.5L14.668 4L19.6354 5.39743C19.851 5.45809 20 5.65475 20 5.87875V19.3399C20 19.6713 19.6836 19.911 19.3646 19.8212L14.668 18.5L9.33594 20ZM15.418 17.1528L18.5 18.0198V6.63625L15.418 5.76921V17.1528Z" fill="#3C3C3C"/>
</svg>
