<svg width="24" height="24" viewBox="0 0 24 24" fill="none" xmlns="http://www.w3.org/2000/svg">
<g id="mic-on-outline">
<path id="icon" fill-rule="evenodd" clip-rule="evenodd" d="M14 10.5V7.5C14 6.39543 13.1046 5.5 12 5.5C10.8954 5.5 10 6.39543 10 7.5V10.5C10 11.6046 10.8954 12.5 12 12.5C13.1046 12.5 14 11.6046 14 10.5ZM12 4C10.067 4 8.5 5.567 8.5 7.5V10.5C8.5 12.433 10.067 14 12 14C13.933 14 15.5 12.433 15.5 10.5V7.5C15.5 5.567 13.933 4 12 4ZM10.5 18.5C10.9142 18.5 11.25 18.1642 11.25 17.75V16.9536C8.53547 16.6151 6.38407 14.4633 6.04624 11.7485C5.99509 11.3375 6.33579 11 6.75 11C7.16422 11 7.49345 11.3383 7.5617 11.7469C7.91746 13.8767 9.76916 15.5 12 15.5C14.2308 15.5 16.0825 13.8767 16.4383 11.7469C16.5066 11.3383 16.8358 11 17.25 11C17.6642 11 18.0049 11.3375 17.9538 11.7485C17.6159 14.4633 15.4645 16.6151 12.75 16.9536V17.75C12.75 18.1642 13.0858 18.5 13.5 18.5H14.25C14.6642 18.5 15 18.8358 15 19.25C15 19.6642 14.6642 20 14.25 20H9.75C9.33579 20 9 19.6642 9 19.25C9 18.8358 9.33579 18.5 9.75 18.5H10.5Z" fill="#3C3C3C"/>
</g>
</svg>
