<svg width="24" height="24" viewBox="0 0 24 24" fill="none" xmlns="http://www.w3.org/2000/svg">
<g id="mic-off-outline">
<path id="icon" fill-rule="evenodd" clip-rule="evenodd" d="M14 10.5V7.5C14 6.39545 13.1046 5.5 12 5.5C10.8955 5.5 10 6.39545 10 7.5V7.87866L8.6396 6.51825C9.06398 5.06317 10.4079 4 12 4C13.933 4 15.5 5.56702 15.5 7.5V10.5C15.5 11.3082 15.2261 12.0523 14.7661 12.6448L13.6905 11.5692C13.8865 11.2599 14 10.8932 14 10.5ZM10 10L8.50002 8.5L6.00002 5.99994C5.70711 5.70703 5.23225 5.70703 4.93935 5.99994C4.64644 6.29285 4.64644 6.7677 4.93935 7.06061L8.50215 10.6234C8.56575 12.4583 10.0418 13.9343 11.8767 13.9979L13.2133 15.3345C12.8273 15.4424 12.4204 15.5 12 15.5C9.76918 15.5 7.9175 13.8767 7.56172 11.7469C7.49348 11.3383 7.16426 11 6.75002 11C6.33583 11 5.99507 11.3375 6.04628 11.7485C6.38411 14.4633 8.53548 16.6151 11.25 16.9536V17.75C11.25 18.1642 10.9143 18.5 10.5 18.5H9.75002C9.33583 18.5 9.00002 18.8358 9.00002 19.25C9.00002 19.6642 9.33583 20 9.75002 20H14.25C14.6643 20 15 19.6642 15 19.25C15 18.8358 14.6643 18.5 14.25 18.5H13.5C13.0858 18.5 12.75 18.1642 12.75 17.75V16.9536C13.3244 16.882 13.8737 16.7291 14.3858 16.507L16.9393 19.0605C17.2323 19.3535 17.7071 19.3535 18 19.0605C18.2929 18.7677 18.2929 18.2928 18 18L15.7133 15.7133L14.6427 14.6426L13.6091 13.609L12.4494 12.4493L10 10ZM17.9538 11.7485C17.8192 12.8296 17.3971 13.8214 16.7663 14.645L15.6931 13.5718C16.0664 13.0369 16.3264 12.4169 16.4383 11.7469C16.5065 11.3383 16.8358 11 17.25 11C17.6643 11 18.005 11.3375 17.9538 11.7485Z" fill="#3C3C3C"/>
</g>
</svg>
