<svg width="24" height="24" viewBox="0 0 24 24" fill="none" xmlns="http://www.w3.org/2000/svg">
<path fill-rule="evenodd" clip-rule="evenodd" d="M18.4898 14.8123C18.4923 14.8121 18.4948 14.8119 18.4972 14.8117C18.5643 14.8059 18.6312 14.7994 18.6978 14.7921C18.9015 14.7698 19.103 14.7402 19.302 14.7035C19.7079 14.6286 20.0665 15.016 19.8816 15.385C19.7765 15.595 19.6627 15.7998 19.5409 15.9992C19.5008 16.0648 19.4598 16.1298 19.4179 16.1942C19.415 16.1987 19.4121 16.2031 19.4092 16.2076C17.9198 18.49 15.3434 19.9985 12.4146 19.9985C7.80517 19.9985 4.06848 16.2618 4.06848 11.6524C4.06848 8.60566 5.70101 5.94023 8.13902 4.48312C8.14358 4.48039 8.14814 4.47767 8.1527 4.47496C8.21876 4.43565 8.28541 4.39723 8.35263 4.35971C8.55656 4.24587 8.76576 4.14034 8.97978 4.04358C9.35589 3.87352 9.72858 4.24723 9.63767 4.64987C9.59309 4.84731 9.5555 5.0474 9.52519 5.24987C9.51526 5.3162 9.50611 5.38279 9.49775 5.44962C9.49745 5.45208 9.49714 5.45453 9.49683 5.45699C9.45456 5.79739 9.43279 6.14415 9.43279 6.496C9.43279 11.1054 13.1695 14.8421 17.7789 14.8421C18.0184 14.8421 18.2555 14.8321 18.4898 14.8123ZM7.93281 6.47667C7.9328 6.48311 7.93279 6.48956 7.93279 6.496C7.93279 11.81 12.1425 16.1408 17.409 16.3353C16.159 17.6679 14.3831 18.4985 12.4146 18.4985C8.6336 18.4985 5.56848 15.4334 5.56848 11.6524C5.56848 9.58669 6.48343 7.7329 7.93281 6.47667Z" fill="#3C3C3C"/>
</svg>
