<svg width="24" height="24" viewBox="0 0 24 24" fill="none" xmlns="http://www.w3.org/2000/svg">
<g id="more-vertical-outline">
<path id="icon" fill-rule="evenodd" clip-rule="evenodd" d="M12 6.99997C12.828 6.99997 13.5 6.32797 13.5 5.49997C13.5 4.67197 12.828 3.99997 12 3.99997C11.172 3.99997 10.5 4.67197 10.5 5.49997C10.5 6.32797 11.172 6.99997 12 6.99997ZM12 10.5C11.172 10.5 10.5 11.172 10.5 12C10.5 12.828 11.172 13.5 12 13.5C12.828 13.5 13.5 12.828 13.5 12C13.5 11.172 12.828 10.5 12 10.5ZM10.5 18.5C10.5 17.672 11.172 17 12 17C12.828 17 13.5 17.672 13.5 18.5C13.5 19.328 12.828 20 12 20C11.172 20 10.5 19.328 10.5 18.5Z" fill="#3C3C3C"/>
</g>
</svg>
