<svg width="24" height="24" viewBox="0 0 24 24" fill="none" xmlns="http://www.w3.org/2000/svg">
<g id="more-horizontal-outline">
<path id="icon" fill-rule="evenodd" clip-rule="evenodd" d="M4 12C4 11.172 4.672 10.5 5.5 10.5C6.328 10.5 7 11.172 7 12C7 12.828 6.328 13.5 5.5 13.5C4.672 13.5 4 12.828 4 12ZM12 10.5C11.172 10.5 10.5 11.172 10.5 12C10.5 12.828 11.172 13.5 12 13.5C12.828 13.5 13.5 12.828 13.5 12C13.5 11.172 12.828 10.5 12 10.5ZM18.5 10.5C17.672 10.5 17 11.172 17 12C17 12.828 17.672 13.5 18.5 13.5C19.328 13.5 20 12.828 20 12C20 11.172 19.328 10.5 18.5 10.5Z" fill="#3C3C3C"/>
</g>
</svg>
