<svg width="24" height="24" viewBox="0 0 24 24" fill="none" xmlns="http://www.w3.org/2000/svg">
<path fill-rule="evenodd" clip-rule="evenodd" d="M11.4689 19.7816C11.6095 19.9227 11.8005 20.002 11.9996 20.0021C12.1988 20.0022 12.3898 19.9231 12.5306 19.7822L14.6927 17.6179C14.9854 17.3249 14.9852 16.85 14.6922 16.5573C14.3991 16.2645 13.9243 16.2648 13.6315 16.5578L12.75 17.4402L12.75 15.6917V15.6917L12.75 12.749L17.4427 12.749L16.5615 13.631C16.2688 13.924 16.269 14.3989 16.562 14.6916C16.8551 14.9844 17.3299 14.9841 17.6227 14.6911L19.7827 12.529C20.0754 12.236 20.0752 11.7611 19.7822 11.4684L17.6222 9.31045C17.3292 9.0177 16.8543 9.01792 16.5615 9.31096C16.2688 9.60399 16.269 10.0789 16.562 10.3716L17.4402 11.249L12.75 11.249L12.75 6.55729L13.632 7.43844C13.9251 7.7312 14.3999 7.73097 14.6927 7.43793C14.9854 7.1449 14.9852 6.67002 14.6922 6.37727L12.5301 4.21728C12.2371 3.92453 11.7622 3.92476 11.4694 4.21779L9.31151 6.37778C9.01876 6.67082 9.01899 7.14569 9.31202 7.43844C9.60506 7.7312 10.0799 7.73097 10.3727 7.43793L11.25 6.55976L11.25 11.2489L8.30834 11.2489L8.30831 11.2489L6.56234 11.2489L7.44168 10.3721C7.735 10.0797 7.7357 9.60481 7.44323 9.31149C7.15077 9.01817 6.6759 9.01747 6.38258 9.30993L4.21834 11.4678C4.0773 11.6085 3.99799 11.7994 3.99789 11.9986C3.9978 12.1977 4.07692 12.3888 4.21782 12.5295L6.38205 14.6916C6.67509 14.9844 7.14997 14.9842 7.44271 14.6911C7.73546 14.3981 7.73523 13.9232 7.44219 13.6305L6.55979 12.7489L8.30831 12.7489H8.30833L11.25 12.7489L11.25 15.6916L11.25 15.6917L11.25 17.4376L10.3732 16.5583C10.0807 16.265 9.60588 16.2643 9.31255 16.5568C9.01923 16.8492 9.01853 17.3241 9.311 17.6174L11.4689 19.7816Z" fill="#3C3C3C"/>
</svg>
