<svg width="25" height="24" viewBox="0 0 25 24" fill="none" xmlns="http://www.w3.org/2000/svg">
<path fill-rule="evenodd" clip-rule="evenodd" d="M7.66818 4C8.08239 4 8.41818 4.33579 8.41818 4.75V9.93934L9.63785 8.71967C9.93074 8.42678 10.4056 8.42678 10.6985 8.71967C10.9914 9.01256 10.9914 9.48744 10.6985 9.78033L8.19851 12.2803C7.90562 12.5732 7.43074 12.5732 7.13785 12.2803L4.63785 9.78033C4.34496 9.48744 4.34496 9.01256 4.63785 8.71967C4.93075 8.42678 5.40562 8.42678 5.69851 8.71967L6.91818 9.93934V4.75C6.91818 4.33579 7.25397 4 7.66818 4ZM12.9182 18.5V14.5H18.9182V18.5H12.9182ZM11.4182 14C11.4182 13.4477 11.8659 13 12.4182 13H19.4182C19.9705 13 20.4182 13.4477 20.4182 14V19C20.4182 19.5523 19.9705 20 19.4182 20H12.4182C11.8659 20 11.4182 19.5523 11.4182 19V14Z" fill="#3C3C3C"/>
</svg>
