<svg width="24" height="24" viewBox="0 0 24 24" fill="none" xmlns="http://www.w3.org/2000/svg">
<g id="options-2-outline">
<path id="icon" fill-rule="evenodd" clip-rule="evenodd" d="M19.25 7.25C19.6642 7.25 20 6.91421 20 6.5C20 6.08579 19.6642 5.75 19.25 5.75L10.3855 5.75C10.067 4.73572 9.11941 4 8 4C6.88059 4 5.93302 4.73572 5.61445 5.75L4.75 5.75C4.33579 5.75 4 6.08579 4 6.5C4 6.91421 4.33579 7.25 4.75 7.25L5.61445 7.25C5.93302 8.26428 6.88059 9 8 9C9.11941 9 10.067 8.26428 10.3855 7.25L19.25 7.25ZM8 7.5C7.44772 7.5 7 7.05228 7 6.5C7 5.94771 7.44772 5.5 8 5.5C8.55228 5.5 9 5.94771 9 6.5C9 7.05228 8.55228 7.5 8 7.5ZM17.5 9.71582C16.3806 9.71582 15.433 10.4515 15.1145 11.4658L4.75 11.4658C4.33579 11.4658 4 11.8016 4 12.2158C4 12.63 4.33579 12.9658 4.75 12.9658L15.1145 12.9658C15.433 13.9801 16.3806 14.7158 17.5 14.7158C18.8807 14.7158 20 13.5965 20 12.2158C20 10.8351 18.8807 9.71582 17.5 9.71582ZM19.25 18.25C19.6642 18.25 20 17.9142 20 17.5C20 17.0858 19.6642 16.75 19.25 16.75L14.3855 16.75C14.067 15.7357 13.1194 15 12 15C10.8806 15 9.93302 15.7357 9.61445 16.75L4.75 16.75C4.33579 16.75 4 17.0858 4 17.5C4 17.9142 4.33579 18.25 4.75 18.25L9.61445 18.25C9.93302 19.2643 10.8806 20 12 20C13.1194 20 14.067 19.2643 14.3855 18.25L19.25 18.25ZM16.5 12.2158C16.5 12.7681 16.9477 13.2158 17.5 13.2158C18.0523 13.2158 18.5 12.7681 18.5 12.2158C18.5 11.6635 18.0523 11.2158 17.5 11.2158C16.9477 11.2158 16.5 11.6635 16.5 12.2158ZM12 18.5C11.4477 18.5 11 18.0523 11 17.5C11 16.9477 11.4477 16.5 12 16.5C12.5523 16.5 13 16.9477 13 17.5C13 18.0523 12.5523 18.5 12 18.5Z" fill="#3C3C3C"/>
</g>
</svg>
