<svg width="24" height="24" viewBox="0 0 24 24" fill="none" xmlns="http://www.w3.org/2000/svg">
<g id="options-outline">
<path id="icon" fill-rule="evenodd" clip-rule="evenodd" d="M7.25 4.75C7.25 4.33579 6.91421 4 6.5 4C6.08579 4 5.75 4.33579 5.75 4.75V13.6145C4.73572 13.933 4 14.8806 4 16C4 17.1194 4.73572 18.067 5.75 18.3855V19.25C5.75 19.6642 6.08579 20 6.5 20C6.91421 20 7.25 19.6642 7.25 19.25V18.3855C8.26428 18.067 9 17.1194 9 16C9 14.8806 8.26428 13.933 7.25 13.6145V4.75ZM7.5 16C7.5 16.5523 7.05228 17 6.5 17C5.94772 17 5.5 16.5523 5.5 16C5.5 15.4477 5.94772 15 6.5 15C7.05228 15 7.5 15.4477 7.5 16ZM9.71582 6.5C9.71582 7.61941 10.4515 8.56698 11.4658 8.88555L11.4658 19.25C11.4658 19.6642 11.8016 20 12.2158 20C12.63 20 12.9658 19.6642 12.9658 19.25V8.88555C13.9801 8.56698 14.7158 7.61941 14.7158 6.5C14.7158 5.11929 13.5965 4 12.2158 4C10.8351 4 9.71582 5.11929 9.71582 6.5ZM18.25 4.75C18.25 4.33579 17.9142 4 17.5 4C17.0858 4 16.75 4.33579 16.75 4.75V9.61445C15.7357 9.93302 15 10.8806 15 12C15 13.1194 15.7357 14.067 16.75 14.3855V19.25C16.75 19.6642 17.0858 20 17.5 20C17.9142 20 18.25 19.6642 18.25 19.25V14.3855C19.2643 14.067 20 13.1194 20 12C20 10.8806 19.2643 9.93302 18.25 9.61445V4.75ZM12.2158 7.5C12.7681 7.5 13.2158 7.05228 13.2158 6.5C13.2158 5.94772 12.7681 5.5 12.2158 5.5C11.6635 5.5 11.2158 5.94772 11.2158 6.5C11.2158 7.05228 11.6635 7.5 12.2158 7.5ZM18.5 12C18.5 12.5523 18.0523 13 17.5 13C16.9477 13 16.5 12.5523 16.5 12C16.5 11.4477 16.9477 11 17.5 11C18.0523 11 18.5 11.4477 18.5 12Z" fill="#3C3C3C"/>
</g>
</svg>
