<svg width="24" height="24" viewBox="0 0 24 24" fill="none" xmlns="http://www.w3.org/2000/svg">
<g id="pencil-outline">
<path id="icon" fill-rule="evenodd" clip-rule="evenodd" d="M18.7362 4.732C17.7599 3.75569 16.177 3.75569 15.2007 4.732L13.2742 6.65848L17.3415 10.7258L19.268 8.79932C20.2443 7.82301 20.2443 6.24009 19.268 5.26378L18.7362 4.732ZM17.3415 8.60447L18.2073 7.73866C18.5979 7.34813 18.5979 6.71497 18.2073 6.32444L17.6756 5.79266C17.285 5.40214 16.6519 5.40214 16.2614 5.79266L15.3955 6.65848L17.3415 8.60447ZM6.60624 15.4478L5.86079 18.1392L8.55223 17.3938L13.8094 12.1366L11.8634 10.1906L6.60624 15.4478ZM5.45878 14.4739C5.33251 14.6002 5.24109 14.757 5.19343 14.9291L4.02494 19.1479C3.88549 19.6514 4.34862 20.1145 4.85211 19.9751L9.07091 18.8066C9.24301 18.7589 9.39982 18.6675 9.52609 18.5412L15.9307 12.1366L11.8634 8.06932L5.45878 14.4739Z" fill="#3C3C3C"/>
</g>
</svg>
