<svg width="24" height="24" viewBox="0 0 24 24" fill="none" xmlns="http://www.w3.org/2000/svg">
<path fill-rule="evenodd" clip-rule="evenodd" d="M7.65308 9.84473C7.65308 7.44402 9.59925 5.49786 12 5.49786C14.4007 5.49786 16.3469 7.44402 16.3469 9.84473C16.3469 10.366 16.0969 11.1477 15.6272 12.1051C15.1703 13.0361 14.5538 14.0392 13.9262 14.9717C13.3004 15.9015 12.6732 16.7469 12.2016 17.3607C12.1306 17.4531 12.0632 17.5402 12 17.6214C11.9367 17.5402 11.8693 17.4531 11.7983 17.3607C11.3268 16.7469 10.6995 15.9015 10.0737 14.9717C9.44612 14.0392 8.82961 13.0361 8.37278 12.1051C7.90303 11.1477 7.65308 10.366 7.65308 9.84473ZM11.4218 19.3026C11.4219 19.3027 11.4219 19.3028 12 18.8249L11.4219 19.3028L12 20.002L12.578 19.3028L12 18.8249C12.578 19.3028 12.5781 19.3027 12.5782 19.3026L12.5785 19.3023L12.5794 19.3012L12.5826 19.2973L12.5944 19.2829L12.6388 19.2286C12.6774 19.1812 12.7334 19.112 12.8045 19.0233C12.9465 18.8458 13.1488 18.59 13.3911 18.2745C13.8752 17.6444 14.5222 16.7726 15.1706 15.8092C15.8172 14.8485 16.475 13.7825 16.9738 12.7658C17.4597 11.7755 17.8469 10.7309 17.8469 9.84473C17.8469 6.6156 15.2291 3.99786 12 3.99786C8.77082 3.99786 6.15308 6.6156 6.15308 9.84473C6.15308 10.7309 6.54023 11.7755 7.02615 12.7658C7.52499 13.7825 8.18271 14.8485 8.82933 15.8092C9.47774 16.7726 10.1247 17.6444 10.6088 18.2745C10.8512 18.59 11.0534 18.8458 11.1955 19.0233C11.2665 19.112 11.3226 19.1812 11.3612 19.2286L11.4056 19.2829L11.4174 19.2973L11.4206 19.3012L11.4215 19.3023L11.4218 19.3026ZM10.7074 9.8448C10.7074 9.13096 11.2861 8.55228 12 8.55228C12.7138 8.55228 13.2925 9.13096 13.2925 9.8448C13.2925 10.5586 12.7138 11.1373 12 11.1373C11.2861 11.1373 10.7074 10.5586 10.7074 9.8448ZM12 7.05229C10.4577 7.05229 9.20744 8.30254 9.20744 9.8448C9.20744 11.3871 10.4577 12.6373 12 12.6373C13.5422 12.6373 14.7925 11.3871 14.7925 9.8448C14.7925 8.30254 13.5422 7.05229 12 7.05229Z" fill="#3C3C3C"/>
</svg>
