<svg width="24" height="24" viewBox="0 0 24 24" fill="none" xmlns="http://www.w3.org/2000/svg">
<g id="plus-square-outline">
<path id="icon" fill-rule="evenodd" clip-rule="evenodd" d="M6.5 5.5H17.5C18.0523 5.5 18.5 5.94772 18.5 6.5V17.5C18.5 18.0523 18.0523 18.5 17.5 18.5H6.5C5.94772 18.5 5.5 18.0523 5.5 17.5V6.5C5.5 5.94772 5.94772 5.5 6.5 5.5ZM4 6.5C4 5.11929 5.11929 4 6.5 4H17.5C18.8807 4 20 5.11929 20 6.5V17.5C20 18.8807 18.8807 20 17.5 20H6.5C5.11929 20 4 18.8807 4 17.5V6.5ZM12 8C12.4142 8 12.75 8.33579 12.75 8.75V11.25H15.25C15.6642 11.25 16 11.5858 16 12C16 12.4142 15.6642 12.75 15.25 12.75H12.75V15.25C12.75 15.6642 12.4142 16 12 16C11.5858 16 11.25 15.6642 11.25 15.25V12.75H8.75C8.33579 12.75 8 12.4142 8 12C8 11.5858 8.33579 11.25 8.75 11.25L11.25 11.25V8.75C11.25 8.33579 11.5858 8 12 8Z" fill="#3C3C3C"/>
</g>
</svg>
