<svg width="24" height="24" viewBox="0 0 24 24" fill="none" xmlns="http://www.w3.org/2000/svg">
<g id="plus-outline">
<path id="icon" fill-rule="evenodd" clip-rule="evenodd" d="M11.9561 5C12.3703 5 12.7061 5.33579 12.7061 5.75V11H17.9561C18.3703 11 18.7061 11.3358 18.7061 11.75C18.7061 12.1642 18.3703 12.5 17.9561 12.5H12.7061V17.75C12.7061 18.1642 12.3703 18.5 11.9561 18.5C11.5418 18.5 11.2061 18.1642 11.2061 17.75V12.5H5.95605C5.54184 12.5 5.20605 12.1642 5.20605 11.75C5.20605 11.3358 5.54184 11 5.95605 11H11.2061V5.75C11.2061 5.33579 11.5418 5 11.9561 5Z" fill="#3C3C3C"/>
</g>
</svg>
