<svg width="24" height="24" viewBox="0 0 24 24" fill="none" xmlns="http://www.w3.org/2000/svg">
<g id="radioON-outline">
<path id="icon" fill-rule="evenodd" clip-rule="evenodd" d="M18.5 12C18.5 15.5898 15.5898 18.5 12 18.5C8.41016 18.5 5.5 15.5898 5.5 12C5.5 8.41016 8.41016 5.5 12 5.5C15.5898 5.5 18.5 8.41016 18.5 12ZM20 12C20 16.4183 16.4183 20 12 20C7.58173 20 4 16.4183 4 12C4 7.58173 7.58173 4 12 4C16.4183 4 20 7.58173 20 12ZM12 16C14.2092 16 16 14.2092 16 12C16 9.79083 14.2092 8 12 8C9.79083 8 8 9.79083 8 12C8 14.2092 9.79083 16 12 16Z" fill="#3C3C3C"/>
</g>
</svg>
