<svg width="24" height="24" viewBox="0 0 24 24" fill="none" xmlns="http://www.w3.org/2000/svg">
<path fill-rule="evenodd" clip-rule="evenodd" d="M12.515 5.52164C9.4818 5.28023 6.7695 7.16175 5.83985 9.92L7.61657 8.86534C7.97276 8.65391 8.43291 8.77126 8.64434 9.12745C8.85577 9.48363 8.73842 9.94378 8.38223 10.1552L5.15498 12.0709C4.98391 12.1724 4.7795 12.2019 4.58673 12.1527C4.39396 12.1035 4.22863 11.9797 4.12713 11.8086L2.21273 8.58176C2.00138 8.22552 2.11884 7.7654 2.47508 7.55405C2.83132 7.34271 3.29143 7.46017 3.50278 7.81641L4.43573 9.38898C5.59596 6.02191 8.91947 3.73072 12.634 4.02636C14.4777 4.17311 16.1274 4.93497 17.3946 6.0939C17.7003 6.37344 17.7215 6.84784 17.442 7.15351C17.1624 7.45918 16.688 7.48036 16.3824 7.20083C15.3526 6.25913 14.0145 5.64098 12.515 5.52164ZM11.485 18.4784C14.5182 18.7198 17.2305 16.8382 18.1602 14.08L16.3834 15.1347C16.0273 15.3461 15.5671 15.2287 15.3557 14.8725C15.1442 14.5164 15.2616 14.0562 15.6178 13.8448L18.845 11.9291C19.0161 11.8275 19.2205 11.7981 19.4133 11.8473C19.6061 11.8965 19.7714 12.0203 19.8729 12.1914L21.7873 15.4182C21.9986 15.7745 21.8812 16.2346 21.5249 16.4459C21.1687 16.6573 20.7086 16.5398 20.4972 16.1836L19.5643 14.611C18.4041 17.9781 15.0805 20.2693 11.366 19.9736C9.52264 19.8269 7.87332 19.0653 6.60615 17.9068C6.30044 17.6273 6.2792 17.1529 6.55869 16.8472C6.83819 16.5415 7.31258 16.5202 7.61829 16.7997C8.64794 17.7411 9.98585 18.359 11.485 18.4784Z" fill="#3C3C3C"/>
</svg>
