<svg width="24" height="24" viewBox="0 0 24 24" fill="none" xmlns="http://www.w3.org/2000/svg">
<path fill-rule="evenodd" clip-rule="evenodd" d="M10.0303 6.46967C10.3232 6.76256 10.3232 7.23744 10.0303 7.53033L7.31066 10.25H13.5C16.6756 10.25 19.25 12.8244 19.25 16V17C19.25 17.4142 18.9142 17.75 18.5 17.75C18.0858 17.75 17.75 17.4142 17.75 17V16C17.75 13.6528 15.8472 11.75 13.5 11.75H7.31066L10.0303 14.4697C10.3232 14.7626 10.3232 15.2374 10.0303 15.5303C9.73744 15.8232 9.26256 15.8232 8.96967 15.5303L4.96967 11.5303C4.67678 11.2374 4.67678 10.7626 4.96967 10.4697L8.96967 6.46967C9.26256 6.17678 9.73744 6.17678 10.0303 6.46967Z" fill="#3C3C3C"/>
</svg>
