<svg width="24" height="24" viewBox="0 0 24 24" fill="none" xmlns="http://www.w3.org/2000/svg">
<path fill-rule="evenodd" clip-rule="evenodd" d="M8.21967 6.71967C8.51256 6.42678 8.98744 6.42678 9.28033 6.71967L12.7803 10.2197C13.0732 10.5126 13.0732 10.9874 12.7803 11.2803C12.4874 11.5732 12.0126 11.5732 11.7197 11.2803L9.5 9.06066V14.75C9.5 15.4404 10.0596 16 10.75 16H18.75C19.1642 16 19.5 16.3358 19.5 16.75C19.5 17.1642 19.1642 17.5 18.75 17.5H10.75C9.23122 17.5 8 16.2688 8 14.75V9.06066L5.78033 11.2803C5.48744 11.5732 5.01256 11.5732 4.71967 11.2803C4.42678 10.9874 4.42678 10.5126 4.71967 10.2197L8.21967 6.71967Z" fill="#3C3C3C"/>
</svg>
