<svg width="24" height="24" viewBox="0 0 24 24" fill="none" xmlns="http://www.w3.org/2000/svg">
<path fill-rule="evenodd" clip-rule="evenodd" d="M16.9343 7.52908C14.9096 5.43798 11.652 4.90455 9.01687 6.42594C5.90797 8.22087 4.84278 12.1962 6.6377 15.3051C8.43263 18.414 12.408 19.4792 15.5169 17.6843C16.8211 16.9313 17.7644 15.7964 18.2892 14.5017C18.4448 14.1178 18.8821 13.9327 19.266 14.0883C19.6499 14.2439 19.8349 14.6813 19.6793 15.0652C19.0335 16.6585 17.8705 18.0575 16.2669 18.9833C12.4405 21.1925 7.54781 19.8814 5.33867 16.0551C3.12953 12.2288 4.44053 7.33604 8.26687 5.1269C11.4939 3.26376 15.4795 3.90446 17.974 6.44623L18.1407 4.62535C18.1784 4.21286 18.5434 3.90908 18.9559 3.94684C19.3684 3.98459 19.6722 4.34959 19.6344 4.76208L19.2924 8.49847C19.2743 8.69659 19.1782 8.87938 19.0253 9.00663C18.8723 9.13388 18.6751 9.19515 18.477 9.17697L14.7397 8.83398C14.3272 8.79612 14.0235 8.43105 14.0614 8.01857C14.0993 7.60609 14.4643 7.3024 14.8768 7.34025L16.9343 7.52908Z" fill="#3C3C3C"/>
</svg>
