<svg width="24" height="24" viewBox="0 0 24 24" fill="none" xmlns="http://www.w3.org/2000/svg">
<path fill-rule="evenodd" clip-rule="evenodd" d="M7.06565 7.52908C9.09035 5.43798 12.348 4.90455 14.9831 6.42594C18.092 8.22087 19.1572 12.1962 17.3623 15.3051C15.5673 18.414 11.592 19.4792 8.48311 17.6843C7.17892 16.9313 6.23556 15.7964 5.71077 14.5017C5.55517 14.1178 5.11783 13.9327 4.73396 14.0883C4.35008 14.2439 4.16503 14.6813 4.32063 15.0652C4.96648 16.6585 6.12948 18.0575 7.73311 18.9833C11.5595 21.1925 16.4522 19.8814 18.6613 16.0551C20.8705 12.2288 19.5595 7.33604 15.7331 5.1269C12.5061 3.26376 8.52049 3.90446 6.02597 6.44623L5.8593 4.62535C5.82154 4.21286 5.45655 3.90908 5.04406 3.94684C4.63157 3.98459 4.32779 4.34959 4.36555 4.76208L4.70755 8.49847C4.72569 8.69659 4.82179 8.87938 4.97472 9.00663C5.12764 9.13388 5.32486 9.19515 5.52297 9.17697L9.26026 8.83398C9.67274 8.79612 9.97643 8.43105 9.93858 8.01857C9.90072 7.60609 9.53565 7.3024 9.12317 7.34025L7.06565 7.52908Z" fill="#3C3C3C"/>
</svg>
