<svg width="24" height="24" viewBox="0 0 24 24" fill="none" xmlns="http://www.w3.org/2000/svg">
<g id="save-outline">
<path id="icon" fill-rule="evenodd" clip-rule="evenodd" d="M4 4.75C4 4.33579 4.33579 4 4.75 4H15.6875C15.8864 4 16.0772 4.07902 16.2178 4.21967L19.7803 7.78217C19.921 7.92282 20 8.11359 20 8.3125V19.25C20 19.6642 19.6642 20 19.25 20H4.75C4.33579 20 4 19.6642 4 19.25V4.75ZM5.5 5.5V18.5H6.75V14.9954C6.75 14.0289 7.5335 13.2454 8.5 13.2454H15.5C16.4665 13.2454 17.25 14.0289 17.25 14.9954V18.5H18.5V8.62316L15.3768 5.5H15.25V7.49536C15.25 8.46186 14.4665 9.24536 13.5 9.24536H10.5C9.5335 9.24536 8.75 8.46186 8.75 7.49536V5.5H5.5ZM10.25 5.5V7.49536C10.25 7.63343 10.3619 7.74536 10.5 7.74536H13.5C13.6381 7.74536 13.75 7.63343 13.75 7.49536V5.5H10.25ZM15.75 18.5V14.9954C15.75 14.8573 15.6381 14.7454 15.5 14.7454H8.5C8.36193 14.7454 8.25 14.8573 8.25 14.9954V18.5H15.75Z" fill="#3C3C3C"/>
</g>
</svg>
