<svg width="24" height="24" viewBox="0 0 24 24" fill="none" xmlns="http://www.w3.org/2000/svg">
<path fill-rule="evenodd" clip-rule="evenodd" d="M8.80939 7.93413C8.51666 7.64107 8.51694 7.16621 8.81 6.87349L11.4672 4.21938C11.7597 3.92711 12.2337 3.92683 12.5266 4.2188L15.1895 6.87291C15.4829 7.16533 15.4836 7.64021 15.1912 7.93358C14.8988 8.22694 14.4239 8.22774 14.1306 7.93532L12.7472 6.55647V12.3941C12.7472 12.8083 12.4114 13.1441 11.9972 13.1441C11.5829 13.1441 11.2472 12.8083 11.2472 12.3941V6.55919L9.87006 7.93474C9.577 8.22746 9.10211 8.22719 8.80939 7.93413ZM10.6 17.1265C10.8931 16.8338 10.8933 16.3589 10.6006 16.0659C10.3079 15.7728 9.83304 15.7725 9.53998 16.0653L8.16284 17.4408V11.6059C8.16284 11.1917 7.82706 10.8559 7.41284 10.8559C6.99863 10.8559 6.66284 11.1917 6.66284 11.6059V17.4435L5.27945 16.0647C4.98608 15.7723 4.5112 15.7731 4.21881 16.0664C3.92639 16.3598 3.92716 16.8347 4.22055 17.1271L6.88336 19.7812C7.1763 20.0732 7.65027 20.0729 7.94287 19.7806L10.6 17.1265ZM19.78 17.1265C20.0731 16.8338 20.0734 16.3589 19.7806 16.0659C19.4879 15.7728 19.013 15.7725 18.72 16.0653L17.3429 17.4408V11.6059C17.3429 11.1917 17.0071 10.8559 16.5929 10.8559C16.1787 10.8559 15.8429 11.1917 15.8429 11.6059V17.4435L14.4595 16.0647C14.1661 15.7723 13.6912 15.7731 13.3988 16.0664C13.1064 16.3598 13.1072 16.8347 13.4006 17.1271L16.0634 19.7812C16.3563 20.0732 16.8303 20.0729 17.1229 19.7806L19.78 17.1265Z" fill="#3C3C3C"/>
</svg>
