<svg width="24" height="24" viewBox="0 0 24 24" fill="none" xmlns="http://www.w3.org/2000/svg">
<g id="scissors-outline">
<path id="icon" fill-rule="evenodd" clip-rule="evenodd" d="M8.2 7.85C8.2 8.59559 7.59558 9.2 6.85 9.2C6.10441 9.2 5.5 8.59559 5.5 7.85C5.5 7.10442 6.10441 6.5 6.85 6.5C7.59558 6.5 8.2 7.10442 8.2 7.85ZM9.69999 7.85C9.69999 8.35325 9.56956 8.82603 9.34065 9.23639L11.3121 10.5798L11.3301 10.545L15.6311 7.4895C17.5327 6.15429 19.336 6.93316 20 7.4895L13.3886 11.9948L20 16.5C19.336 17.0563 17.5327 17.8352 15.6311 16.5L11.3301 13.4445L11.3121 13.4097L9.3364 14.756C9.56794 15.1681 9.69999 15.6436 9.69999 16.15C9.69999 17.724 8.42401 19 6.85 19C5.27599 19 4 17.724 4 16.15C4 14.576 5.27599 13.3 6.85 13.3C7.33147 13.3 7.78506 13.4194 8.18277 13.6302L10.5661 12.0165L10.5774 11.9948L10.5661 11.9731L8.19144 10.3652C7.79165 10.5789 7.33497 10.7 6.85 10.7C5.27599 10.7 4 9.42402 4 7.85C4 6.27599 5.27599 5 6.85 5C8.42401 5 9.69999 6.27599 9.69999 7.85ZM8.2 16.15C8.2 16.8956 7.59558 17.5 6.85 17.5C6.10441 17.5 5.5 16.8956 5.5 16.15C5.5 15.4044 6.10441 14.8 6.85 14.8C7.59558 14.8 8.2 15.4044 8.2 16.15Z" fill="#3C3C3C"/>
</g>
</svg>
