<svg width="24" height="24" viewBox="0 0 24 24" fill="none" xmlns="http://www.w3.org/2000/svg">
<g id="search-outline">
<path id="icon" fill-rule="evenodd" clip-rule="evenodd" d="M15.875 10.875C15.875 13.6364 13.6364 15.875 10.875 15.875C8.11357 15.875 5.87499 13.6364 5.87499 10.875C5.87499 8.11358 8.11357 5.875 10.875 5.875C13.6364 5.875 15.875 8.11358 15.875 10.875ZM14.9104 15.971C13.8018 16.85 12.3997 17.375 10.875 17.375C7.28514 17.375 4.37499 14.4649 4.37499 10.875C4.37499 7.28515 7.28514 4.375 10.875 4.375C14.4649 4.375 17.375 7.28515 17.375 10.875C17.375 12.3997 16.85 13.8018 15.971 14.9103L19.4053 18.3447C19.6982 18.6376 19.6982 19.1124 19.4053 19.4053C19.1124 19.6982 18.6376 19.6982 18.3447 19.4053L14.9104 15.971Z" fill="#3C3C3C"/>
</g>
</svg>
