<svg width="24" height="24" viewBox="0 0 24 24" fill="none" xmlns="http://www.w3.org/2000/svg">
<g id="send-alt-outline">
<path id="icon" fill-rule="evenodd" clip-rule="evenodd" d="M19.9632 4.98531C20.0529 4.71586 19.9828 4.41885 19.782 4.21804C19.5811 4.01723 19.2841 3.94707 19.0147 4.03678L4.51145 8.86586C4.20341 8.96842 3.99634 9.25755 3.9984 9.58221C4.00046 9.90687 4.21118 10.1933 4.52049 10.292L11.4913 12.5152L13.7079 19.4791C13.8064 19.7886 14.0929 19.9995 14.4176 20.0016C14.7423 20.0038 15.0316 19.7967 15.1342 19.4886L19.9632 4.98531ZM14.4386 16.8294L12.9415 12.1258L17.536 7.52678L14.4386 16.8294ZM11.8808 11.065L16.4797 6.46183L7.16854 9.56211L11.8808 11.065Z" fill="#3C3C3C"/>
</g>
</svg>
