<svg width="24" height="24" viewBox="0 0 24 24" fill="none" xmlns="http://www.w3.org/2000/svg">
<path fill-rule="evenodd" clip-rule="evenodd" d="M12.0391 3.19214C12.4533 3.19214 12.7891 3.52793 12.7891 3.94214V4.40072L17.6188 5.41694C18.3236 5.56523 18.8281 6.18696 18.8281 6.90717C18.8281 7.64123 18.3045 8.27083 17.5827 8.40455L12.7891 9.29262V9.71484H12.7868V12.9704C12.7569 13.3572 12.4335 13.6617 12.0391 13.6617C11.6248 13.6617 11.2891 13.326 11.2891 12.9117V11.8264L11.2868 11.8271V10.2953L11.2891 10.2949V8.66881V5.00934V3.94214C11.2891 3.52793 11.6248 3.19214 12.0391 3.19214ZM13.7868 12.6365C13.8453 12.7588 13.8729 12.8744 13.8729 12.9683C13.8729 13.38 13.342 14.2059 12.015 14.2059C10.688 14.2059 10.157 13.38 10.157 12.9683C10.157 12.8535 10.1984 12.7063 10.2868 12.5539V10.6206C9.31031 11.0994 8.65704 11.9717 8.65704 12.9683C8.65704 13.4036 8.78165 13.8151 9.00336 14.1806L7.21572 15.2021C7.1488 15.2403 7.09001 15.2873 7.03996 15.3408C6.95447 15.3355 6.86808 15.3328 6.78091 15.3328C4.92637 15.3328 3.42297 16.5584 3.42297 18.0704C3.42297 19.5823 4.92637 20.808 6.78091 20.808C8.27169 20.808 9.53557 20.016 9.97403 18.9199H14.026C14.4645 20.016 15.7284 20.808 17.2191 20.808C19.0737 20.808 20.5771 19.5823 20.5771 18.0704C20.5771 16.5584 19.0737 15.3328 17.2191 15.3328C15.6395 15.3328 14.3146 16.222 13.9566 17.4199H10.0435C9.86932 16.8372 9.46638 16.3276 8.91665 15.9577L10.1465 15.2549L10.1568 15.2489C10.6889 15.5377 11.3279 15.7059 12.015 15.7059C13.8695 15.7059 15.3729 14.4803 15.3729 12.9683C15.3729 11.9866 14.7391 11.1256 13.7868 10.6424V12.6365ZM12.7891 7.7671L17.3094 6.92965C17.3203 6.92764 17.3281 6.91819 17.3281 6.90717C17.3281 6.89636 17.3206 6.88702 17.31 6.8848L12.7891 5.93357V7.7671ZM6.78091 19.308C8.10792 19.308 8.63885 18.4821 8.63885 18.0704C8.63885 17.6587 8.10792 16.8328 6.78091 16.8328C5.4539 16.8328 4.92297 17.6587 4.92297 18.0704C4.92297 18.4821 5.4539 19.308 6.78091 19.308ZM17.2191 19.308C18.5462 19.308 19.0771 18.4821 19.0771 18.0704C19.0771 17.6587 18.5462 16.8328 17.2191 16.8328C15.8921 16.8328 15.3612 17.6587 15.3612 18.0704C15.3612 18.4821 15.8921 19.308 17.2191 19.308Z" fill="#3C3C3C"/>
</svg>
