<svg width="24" height="24" viewBox="0 0 24 24" fill="none" xmlns="http://www.w3.org/2000/svg">
<g id="settings-alt-outline">
<path id="icon" fill-rule="evenodd" clip-rule="evenodd" d="M9.84803 5.57309C9.84803 4.7047 10.552 4.00073 11.4204 4.00073H12.5796C13.448 4.00073 14.1519 4.7047 14.1519 5.57309C14.1519 5.58572 14.1554 5.60447 14.1745 5.62944C14.195 5.65641 14.2299 5.68445 14.2765 5.70126C14.47 5.77123 14.6594 5.84984 14.8441 5.93662C14.8888 5.95762 14.9332 5.9625 14.9668 5.95796C14.9979 5.95376 15.0137 5.94299 15.0226 5.934C15.6368 5.31986 16.6325 5.31986 17.2467 5.934L18.066 6.75333C18.6801 7.36747 18.6801 8.36317 18.066 8.97731C18.057 8.98629 18.0462 9.00208 18.042 9.03314C18.0375 9.0667 18.0424 9.11113 18.0634 9.15583C18.1502 9.34058 18.2288 9.52996 18.2988 9.72352C18.3156 9.77005 18.3436 9.80497 18.3706 9.82551C18.3955 9.84452 18.4143 9.84804 18.4269 9.84804C19.2953 9.84804 19.9993 10.552 19.9993 11.4204V12.5796C19.9993 13.448 19.2953 14.1519 18.4269 14.1519C18.4143 14.1519 18.3956 14.1555 18.3706 14.1745C18.3436 14.195 18.3156 14.2299 18.2988 14.2764C18.2288 14.47 18.1502 14.6594 18.0634 14.8442C18.0424 14.8889 18.0375 14.9333 18.0421 14.9669C18.0463 14.9979 18.057 15.0137 18.066 15.0227C18.6801 15.6368 18.6801 16.6325 18.066 17.2466L17.2466 18.066C16.6325 18.6801 15.6368 18.6801 15.0227 18.066C15.0137 18.057 14.998 18.0463 14.9669 18.0421C14.9334 18.0375 14.8889 18.0424 14.8442 18.0634C14.6595 18.1502 14.47 18.2289 14.2764 18.2989C14.2299 18.3157 14.195 18.3437 14.1744 18.3707C14.1554 18.3956 14.1519 18.4143 14.1519 18.427C14.1519 19.2953 13.448 19.9993 12.5796 19.9993H11.4203C10.552 19.9993 9.84803 19.2953 9.84803 18.427C9.84803 18.4143 9.84452 18.3956 9.82551 18.3706C9.80498 18.3437 9.77007 18.3157 9.72356 18.2989C9.52995 18.2289 9.34052 18.1502 9.15573 18.0634C9.11104 18.0424 9.06661 18.0375 9.03307 18.0421C9.00201 18.0463 8.98624 18.057 8.97726 18.066C8.36314 18.6801 7.36746 18.6801 6.75334 18.066L5.93396 17.2466C5.31983 16.6325 5.31983 15.6368 5.93396 15.0227C5.94294 15.0137 5.95371 14.9979 5.95791 14.9669C5.96244 14.9333 5.95756 14.8889 5.93657 14.8442C5.84976 14.6594 5.77113 14.47 5.70116 14.2764C5.68434 14.2299 5.65632 14.195 5.62936 14.1745C5.6044 14.1555 5.58566 14.1519 5.57304 14.1519C4.70468 14.1519 4.00073 13.448 4.00073 12.5796V11.4204C4.00073 10.552 4.70469 9.84804 5.57306 9.84804C5.58569 9.84804 5.60444 9.84452 5.6294 9.82551C5.65637 9.80497 5.6844 9.77006 5.70121 9.72353C5.77118 9.52997 5.8498 9.34057 5.9366 9.15582C5.9576 9.11112 5.96248 9.06669 5.95795 9.03314C5.95375 9.00207 5.94298 8.98629 5.93399 8.9773C5.31986 8.36317 5.31986 7.36746 5.93399 6.75333L6.75332 5.934C7.36746 5.31986 8.36318 5.31986 8.97733 5.934C8.98631 5.94299 9.0021 5.95376 9.03317 5.95796C9.06673 5.9625 9.11117 5.95762 9.15587 5.93661C9.3406 5.84983 9.52996 5.77123 9.7235 5.70127C9.77003 5.68445 9.80495 5.65642 9.82549 5.62945C9.84451 5.60448 9.84803 5.58572 9.84803 5.57309ZM11.4204 5.50073C11.3804 5.50073 11.348 5.53313 11.348 5.57309C11.348 6.31492 10.8418 6.89204 10.2334 7.11193C10.0835 7.16611 9.93684 7.22701 9.79367 7.29426C9.20772 7.56953 8.44132 7.51931 7.91667 6.99466C7.88831 6.9663 7.84233 6.9663 7.81398 6.99466L6.99465 7.81399C6.96631 7.84233 6.96631 7.88829 6.99465 7.91664C7.51931 8.4413 7.56952 9.2077 7.29424 9.79365C7.22697 9.93683 7.16606 10.0836 7.11188 10.2335C6.89198 10.8418 6.31488 11.348 5.57306 11.348C5.53312 11.348 5.50073 11.3804 5.50073 11.4204V12.5796C5.50073 12.6196 5.5331 12.6519 5.57304 12.6519C6.31485 12.6519 6.89195 13.1582 7.11183 13.7665C7.16603 13.9165 7.22694 14.0632 7.29421 14.2064C7.56948 14.7923 7.51926 15.5587 6.99462 16.0834C6.96628 16.1117 6.96628 16.1576 6.99462 16.186L7.814 17.0054C7.84234 17.0337 7.88827 17.0337 7.9166 17.0054C8.44124 16.4807 9.20763 16.4305 9.79356 16.7058C9.93677 16.7731 10.0835 16.834 10.2335 16.8882C10.8418 17.1081 11.348 17.6852 11.348 18.427C11.348 18.4669 11.3804 18.4993 11.4203 18.4993H12.5796C12.6196 18.4993 12.6519 18.4669 12.6519 18.427C12.6519 17.6852 13.1582 17.1081 13.7665 16.8882C13.9164 16.834 14.0632 16.7731 14.2064 16.7058C14.7923 16.4305 15.5587 16.4807 16.0834 17.0054C16.1117 17.0337 16.1576 17.0337 16.186 17.0054L17.0054 16.186C17.0337 16.1576 17.0337 16.1117 17.0054 16.0833C16.4807 15.5587 16.4305 14.7923 16.7058 14.2064C16.773 14.0632 16.8339 13.9165 16.8881 13.7665C17.108 13.1582 17.6851 12.6519 18.4269 12.6519C18.4669 12.6519 18.4993 12.6196 18.4993 12.5796V11.4204C18.4993 11.3804 18.4669 11.348 18.4269 11.348C17.6851 11.348 17.108 10.8418 16.8881 10.2335C16.8339 10.0836 16.773 9.93684 16.7057 9.79366C16.4305 9.20771 16.4807 8.4413 17.0053 7.91665C17.0337 7.8883 17.0337 7.84234 17.0053 7.81399L16.186 6.99466C16.1576 6.96631 16.1117 6.96631 16.0833 6.99466C15.5587 7.51932 14.7923 7.56954 14.2063 7.29427C14.0631 7.22701 13.9164 7.16611 13.7665 7.11193C13.1582 6.89204 12.6519 6.31492 12.6519 5.57309C12.6519 5.53313 12.6195 5.50073 12.5796 5.50073H11.4204ZM12 10.4037C11.1183 10.4037 10.4036 11.1184 10.4036 12.0001C10.4036 12.8818 11.1183 13.5966 12 13.5966C12.8817 13.5966 13.5964 12.8818 13.5964 12.0001C13.5964 11.1184 12.8817 10.4037 12 10.4037ZM8.90356 12.0001C8.90356 10.29 10.2899 8.90369 12 8.90369C13.7101 8.90369 15.0964 10.29 15.0964 12.0001C15.0964 13.7102 13.7101 15.0966 12 15.0966C10.2899 15.0966 8.90356 13.7102 8.90356 12.0001Z" fill="#3C3C3C"/>
</g>
</svg>
