<svg width="24" height="24" viewBox="0 0 24 24" fill="none" xmlns="http://www.w3.org/2000/svg">
<g id="settings-outline">
<path id="icon" fill-rule="evenodd" clip-rule="evenodd" d="M7.41461 18.0036C7.92563 18.4001 8.48917 18.7331 9.09342 18.9905V19.0018C9.09342 20.1063 9.98885 21.0018 11.0934 21.0018H12.9066C13.9962 21.0018 14.8823 20.1304 14.9061 19.0465C15.539 18.7913 16.129 18.4537 16.663 18.0474C17.6114 18.5582 18.8003 18.2251 19.3425 17.286L20.249 15.7158C20.7864 14.785 20.4906 13.6019 19.5931 13.0299C19.6389 12.6926 19.6625 12.3487 19.6625 12C19.6625 11.6513 19.6389 11.3074 19.5931 10.9701C20.4907 10.3982 20.7864 9.215 20.2491 8.28424L19.3425 6.71399C18.8003 5.77486 17.6114 5.44183 16.663 5.95259C16.129 5.54627 15.539 5.20868 14.9061 4.95352C14.8823 3.8696 13.9962 2.99823 12.9066 2.99823H11.0934C9.98885 2.99823 9.09342 3.89366 9.09342 4.99823V5.00953C8.48917 5.26685 7.92563 5.5999 7.41461 5.99639L7.38958 5.98194C6.433 5.42966 5.20982 5.75741 4.65753 6.71399L3.75095 8.28424C3.19866 9.24082 3.52641 10.464 4.483 11.0163L4.53183 11.0445C4.4924 11.3579 4.47214 11.6769 4.47214 12C4.47214 12.3231 4.4924 12.6421 4.53183 12.9555L4.48301 12.9837C3.52643 13.536 3.19868 14.7592 3.75096 15.7158L4.65754 17.286C5.20983 18.2426 6.43301 18.5703 7.3896 18.0181L7.41461 18.0036ZM10.2172 17.8093C10.4361 17.879 10.5934 18.0771 10.5934 18.3068V19.0018C10.5934 19.2779 10.8173 19.5018 11.0934 19.5018H12.9066C13.1827 19.5018 13.4066 19.2779 13.4066 19.0018V18.3479C13.4066 18.1139 13.5696 17.9133 13.7941 17.8471C14.7005 17.5799 15.5191 17.1076 16.1961 16.4839C16.3657 16.3276 16.6169 16.2897 16.8166 16.405L17.3604 16.719C17.5996 16.8571 17.9054 16.7752 18.0434 16.536L18.95 14.9658C19.0881 14.7266 19.0061 14.4208 18.767 14.2827L18.2424 13.9799C18.0409 13.8635 17.9484 13.624 18.0016 13.3974C18.1068 12.9487 18.1625 12.4808 18.1625 12C18.1625 11.5192 18.1068 11.0513 18.0016 10.6026C17.9484 10.376 18.0409 10.1365 18.2424 10.0201L18.767 9.71725C19.0062 9.57918 19.0881 9.27339 18.95 9.03424L18.0434 7.46399C17.9054 7.22485 17.5996 7.14291 17.3604 7.28098L16.8166 7.59496C16.6169 7.71026 16.3657 7.67236 16.1961 7.51612C15.5191 6.89244 14.7005 6.42012 13.7941 6.15285C13.5696 6.08668 13.4066 5.8861 13.4066 5.6521V4.99823C13.4066 4.72209 13.1827 4.49823 12.9066 4.49823H11.0934C10.8173 4.49823 10.5934 4.72209 10.5934 4.99823V5.6932C10.5934 5.92293 10.4361 6.12101 10.2172 6.19067C9.33879 6.47018 8.54676 6.9434 7.89131 7.56014C7.72183 7.71961 7.46812 7.75933 7.26658 7.64298L6.63958 7.28098C6.40043 7.14291 6.09464 7.22485 5.95657 7.46399L5.04999 9.03424C4.91192 9.27338 4.99385 9.57918 5.233 9.71725L5.87649 10.0888C6.07616 10.204 6.16894 10.4405 6.11868 10.6655C6.02275 11.095 5.97214 11.5416 5.97214 12C5.97214 12.4584 6.02275 12.905 6.11868 13.3345C6.16894 13.5595 6.07616 13.796 5.87649 13.9112L5.23301 14.2827C4.99387 14.4208 4.91193 14.7266 5.05 14.9658L5.95658 16.536C6.09465 16.7752 6.40045 16.8571 6.6396 16.719L7.26658 16.357C7.46812 16.2407 7.72183 16.2804 7.89131 16.4399C8.54676 17.0566 9.33879 17.5298 10.2172 17.8093ZM14 12.0001C14 13.1046 13.1046 14.0001 12 14.0001C10.8954 14.0001 10 13.1046 10 12.0001C10 10.8955 10.8954 10.0001 12 10.0001C13.1046 10.0001 14 10.8955 14 12.0001ZM15.5 12.0001C15.5 13.9331 13.933 15.5001 12 15.5001C10.067 15.5001 8.5 13.9331 8.5 12.0001C8.5 10.0671 10.067 8.50006 12 8.50006C13.933 8.50006 15.5 10.0671 15.5 12.0001Z" fill="#3C3C3C"/>
</g>
</svg>
