<svg width="24" height="24" viewBox="0 0 24 24" fill="none" xmlns="http://www.w3.org/2000/svg">
<path fill-rule="evenodd" clip-rule="evenodd" d="M4.75 4C4.33579 4 4 4.33579 4 4.75V9.25C4 9.66421 4.33579 10 4.75 10C5.16421 10 5.5 9.66421 5.5 9.25V6.56066L10.9393 12L5.5 17.4393V14.75C5.5 14.3358 5.16421 14 4.75 14C4.33579 14 4 14.3358 4 14.75V19.25C4 19.6642 4.33579 20 4.75 20H9.25C9.66421 20 10 19.6642 10 19.25C10 18.8358 9.66421 18.5 9.25 18.5H6.56066L12 13.0607L17.4393 18.5H14.75C14.3358 18.5 14 18.8358 14 19.25C14 19.6642 14.3358 20 14.75 20H19.25C19.6642 20 20 19.6642 20 19.25V14.75C20 14.3358 19.6642 14 19.25 14C18.8358 14 18.5 14.3358 18.5 14.75V17.4393L13.0607 12L18.5 6.56066V9.25C18.5 9.66421 18.8358 10 19.25 10C19.6642 10 20 9.66421 20 9.25V4.75C20 4.33579 19.6642 4 19.25 4H14.75C14.3358 4 14 4.33579 14 4.75C14 5.16421 14.3358 5.5 14.75 5.5H17.4393L12 10.9393L6.56066 5.5H9.25C9.66421 5.5 10 5.16421 10 4.75C10 4.33579 9.66421 4 9.25 4H4.75Z" fill="#3C3C3C"/>
</svg>
