<svg width="24" height="24" viewBox="0 0 24 24" fill="none" xmlns="http://www.w3.org/2000/svg">
<g id="slash-outline">
<path id="icon" fill-rule="evenodd" clip-rule="evenodd" d="M16.0353 17.096C14.9268 17.975 13.5247 18.5 12 18.5C8.41015 18.5 5.5 15.5899 5.5 12C5.5 10.4753 6.02496 9.07323 6.90399 7.96465L16.0353 17.096ZM17.096 16.0353L7.96465 6.90399C9.07323 6.02496 10.4753 5.5 12 5.5C15.5899 5.5 18.5 8.41015 18.5 12C18.5 13.5247 17.975 14.9268 17.096 16.0353ZM20 12C20 16.4183 16.4183 20 12 20C7.58172 20 4 16.4183 4 12C4 7.58172 7.58172 4 12 4C16.4183 4 20 7.58172 20 12Z" fill="#3C3C3C"/>
</g>
</svg>
