<svg width="24" height="24" viewBox="0 0 24 24" fill="none" xmlns="http://www.w3.org/2000/svg">
<g id="square-outline">
<path id="icon" fill-rule="evenodd" clip-rule="evenodd" d="M17.5 5.5H6.5C5.94772 5.5 5.5 5.94772 5.5 6.5V17.5C5.5 18.0523 5.94772 18.5 6.5 18.5H17.5C18.0523 18.5 18.5 18.0523 18.5 17.5V6.5C18.5 5.94772 18.0523 5.5 17.5 5.5ZM6.5 4C5.11929 4 4 5.11929 4 6.5V17.5C4 18.8807 5.11929 20 6.5 20H17.5C18.8807 20 20 18.8807 20 17.5V6.5C20 5.11929 18.8807 4 17.5 4H6.5Z" fill="#3C3C3C"/>
</g>
</svg>
