<svg width="24" height="24" viewBox="0 0 24 24" fill="none" xmlns="http://www.w3.org/2000/svg">
<path fill-rule="evenodd" clip-rule="evenodd" d="M12.6924 4.46143C12.5761 4.18171 12.3029 3.99945 11.9999 3.99945C11.697 3.99945 11.4238 4.18171 11.3074 4.46143L9.3631 9.13618L4.31632 9.54077C4.01434 9.56498 3.75658 9.76849 3.66296 10.0566C3.56934 10.3447 3.65826 10.6609 3.88834 10.858L7.73345 14.1517L6.55871 19.0765C6.48841 19.3712 6.60231 19.6792 6.8474 19.8573C7.09249 20.0354 7.42064 20.0485 7.67918 19.8906L11.9999 17.2515L16.3207 19.8906C16.5792 20.0485 16.9074 20.0354 17.1525 19.8573C17.3975 19.6792 17.5114 19.3712 17.4411 19.0765L16.2664 14.1517L20.1115 10.858C20.3416 10.6609 20.4305 10.3447 20.3369 10.0566C20.2433 9.76849 19.9855 9.56498 19.6835 9.54077L14.6368 9.13618L12.6924 4.46143ZM10.5722 10.1352L11.9999 6.70242L13.4277 10.1352C13.5357 10.3949 13.7799 10.5723 14.0602 10.5948L17.7662 10.8919L14.9427 13.3106C14.7291 13.4935 14.6358 13.7806 14.701 14.0542L15.5637 17.6706L12.3909 15.7326C12.1509 15.586 11.849 15.586 11.609 15.7326L8.43616 17.6706L9.2988 14.0542C9.36406 13.7806 9.27078 13.4935 9.05719 13.3106L6.23364 10.8919L9.9396 10.5948C10.2199 10.5723 10.4641 10.3949 10.5722 10.1352Z" fill="#3C3C3C"/>
</svg>
