<svg width="24" height="24" viewBox="0 0 24 24" fill="none" xmlns="http://www.w3.org/2000/svg">
<path fill-rule="evenodd" clip-rule="evenodd" d="M9.75178 9.15577C9.33757 9.15577 9.00178 8.81999 9.00178 8.40578C9.00178 7.99156 9.33756 7.65577 9.75178 7.65577L17.4411 7.65575L15.0657 5.28033C14.7728 4.98744 14.7728 4.51256 15.0657 4.21967C15.3586 3.92678 15.8334 3.92678 16.1263 4.21967L19.7821 7.87541C20.075 8.1683 20.075 8.64318 19.7821 8.93607L16.1263 12.5918C15.8334 12.8847 15.3586 12.8847 15.0657 12.5918C14.7728 12.2989 14.7728 11.824 15.0657 11.5312L17.4411 9.15575L9.75178 9.15577ZM14.2518 14.8444C14.666 14.8444 15.0018 15.1802 15.0018 15.5944C15.0018 16.0086 14.666 16.3444 14.2517 16.3444L6.55894 16.3443L8.93433 18.7197C9.22723 19.0126 9.22723 19.4875 8.93433 19.7804C8.64144 20.0733 8.16657 20.0733 7.87367 19.7804L4.21793 16.1246C3.92504 15.8317 3.92504 15.3569 4.21793 15.064L7.87367 11.4082C8.16657 11.1153 8.64144 11.1153 8.93433 11.4082C9.22723 11.7011 9.22723 12.176 8.93433 12.4689L6.5589 14.8443L14.2518 14.8444Z" fill="#3C3C3C"/>
</svg>
