<svg width="24" height="24" viewBox="0 0 24 24" fill="none" xmlns="http://www.w3.org/2000/svg">
<path fill-rule="evenodd" clip-rule="evenodd" d="M9.00659 13.5973L8.4448 14.0477C7.8702 14.5083 7.50659 15.2112 7.50659 16C7.50659 17.3807 8.62588 18.5 10.0066 18.5C11.3873 18.5 12.5066 17.3807 12.5066 16C12.5066 15.2112 12.143 14.5083 11.5684 14.0477L11.0066 13.5973V6.5C11.0066 5.94772 10.5589 5.5 10.0066 5.5C9.45431 5.5 9.00659 5.94772 9.00659 6.5V13.5973ZM7.50659 6.5C7.50659 5.11929 8.62588 4 10.0066 4C11.3873 4 12.5066 5.11929 12.5066 6.5V12.8773C13.4211 13.6104 14.0066 14.7368 14.0066 16C14.0066 18.2091 12.2157 20 10.0066 20C7.79745 20 6.00659 18.2091 6.00659 16C6.00659 14.7368 6.59213 13.6104 7.50659 12.8773V6.5Z" fill="#3C3C3C"/>
</svg>
