<svg width="24" height="24" viewBox="0 0 24 24" fill="none" xmlns="http://www.w3.org/2000/svg">
<path fill-rule="evenodd" clip-rule="evenodd" d="M8.44479 14.0476L9.00659 13.5974V12.8772V6.5C9.00659 5.94775 9.4543 5.5 10.0066 5.5C10.5589 5.5 11.0066 5.94775 11.0066 6.5V12.8772V13.5974L11.5684 14.0476C12.143 14.5083 12.5066 15.2112 12.5066 16C12.5066 17.3806 11.3873 18.5 10.0066 18.5C8.62589 18.5 7.50659 17.3806 7.50659 16C7.50659 15.2112 7.87019 14.5083 8.44479 14.0476ZM10.0066 4C8.62589 4 7.50659 5.11938 7.50659 6.5V12.8772C6.59213 13.6104 6.00659 14.7368 6.00659 16C6.00659 18.2092 7.79745 20 10.0066 20C12.2157 20 14.0066 18.2092 14.0066 16C14.0066 14.7368 13.4211 13.6104 12.5066 12.8772V6.5C12.5066 5.11938 11.3873 4 10.0066 4ZM14.0027 6.99854C14.0027 6.58447 14.3385 6.24854 14.7527 6.24854H16.2514L16.2514 4.75C16.2514 4.33569 16.5872 4 17.0014 4C17.4156 4 17.7514 4.33569 17.7514 4.75L17.7514 6.24854H19.2501C19.6643 6.24854 20.0001 6.58447 20.0001 6.99854C20.0001 7.41284 19.6643 7.74854 19.2501 7.74854H17.7514L17.7514 9.24731C17.7514 9.66162 17.4156 9.99731 17.0014 9.99731C16.5872 9.99731 16.2514 9.66162 16.2514 9.24731L16.2514 7.74854H14.7527C14.3385 7.74854 14.0027 7.41284 14.0027 6.99854Z" fill="#3C3C3C"/>
</svg>
