<svg width="24" height="24" viewBox="0 0 24 24" fill="none" xmlns="http://www.w3.org/2000/svg">
<g id="toggleON-outline">
<path id="icon" fill-rule="evenodd" clip-rule="evenodd" d="M10 7.5H14C16.4853 7.5 18.5 9.51472 18.5 12C18.5 14.4853 16.4853 16.5 14 16.5H10C7.51472 16.5 5.5 14.4853 5.5 12C5.5 9.51472 7.51472 7.5 10 7.5ZM4 12C4 8.68629 6.68629 6 10 6H14C17.3137 6 20 8.68629 20 12C20 15.3137 17.3137 18 14 18H10C6.68629 18 4 15.3137 4 12ZM14 13C13.4477 13 13 12.5523 13 12C13 11.4477 13.4477 11 14 11C14.5523 11 15 11.4477 15 12C15 12.5523 14.5523 13 14 13ZM11 12C11 10.3431 12.3431 9 14 9C15.6569 9 17 10.3431 17 12C17 13.6569 15.6569 15 14 15C12.3431 15 11 13.6569 11 12Z" fill="#3C3C3C"/>
</g>
</svg>
