<svg width="24" height="24" viewBox="0 0 24 24" fill="none" xmlns="http://www.w3.org/2000/svg">
<g id="toggleOFF-outline">
<path id="icon" fill-rule="evenodd" clip-rule="evenodd" d="M14 7.50002H10C7.51472 7.50002 5.5 9.51474 5.5 12C5.5 14.4853 7.51472 16.5 10 16.5H14C16.4853 16.5 18.5 14.4853 18.5 12C18.5 9.51474 16.4853 7.50002 14 7.50002ZM20 12C20 8.68631 17.3137 6.00002 14 6.00002H10C6.68629 6.00002 4 8.68631 4 12C4 15.3137 6.68629 18 10 18H14C17.3137 18 20 15.3137 20 12ZM10 13C10.5523 13 11 12.5523 11 12C11 11.4477 10.5523 11 10 11C9.44772 11 9 11.4477 9 12C9 12.5523 9.44772 13 10 13ZM13 12C13 10.3432 11.6569 9.00002 10 9.00002C8.34315 9.00002 7 10.3432 7 12C7 13.6569 8.34315 15 10 15C11.6569 15 13 13.6569 13 12Z" fill="#3C3C3C"/>
</g>
</svg>
