<svg width="24" height="24" viewBox="0 0 24 24" fill="none" xmlns="http://www.w3.org/2000/svg">
<g id="trash-outline">
<path id="icon" fill-rule="evenodd" clip-rule="evenodd" d="M8.4697 5.74631C8.46915 4.77939 9.25284 3.99533 10.2197 3.99533H13.7814C14.7475 3.99533 15.5309 4.77829 15.5314 5.74435L15.5323 7.38132H17.5636H18.9521C19.3664 7.38132 19.7021 7.71713 19.7021 8.13132C19.7021 8.5455 19.3664 8.88132 18.9521 8.88132H18.3136V17.2547C18.3136 18.7735 17.0824 20.0047 15.5636 20.0047H8.44016C6.92142 20.0047 5.69016 18.7735 5.69016 17.2547V8.88132H5.04788C4.6337 8.88132 4.29788 8.5455 4.29788 8.13132C4.29788 7.71713 4.6337 7.38132 5.04788 7.38132H6.44016H8.47061L8.4697 5.74631ZM9.97061 7.38132H14.0323L14.0314 5.74521C14.0313 5.60715 13.9194 5.49533 13.7814 5.49533H10.2197C10.0816 5.49533 9.96964 5.60739 9.9697 5.74545L9.97061 7.38132ZM7.19016 8.88132V17.2547C7.19016 17.945 7.74979 18.5047 8.44016 18.5047H15.5636C16.2539 18.5047 16.8136 17.945 16.8136 17.2547V8.88132H14.7827H9.22104H7.19016ZM9.50003 11.5C9.91422 11.5 10.25 11.8358 10.25 12.25V15.75C10.25 16.1642 9.91422 16.5 9.50003 16.5C9.08585 16.5 8.75003 16.1642 8.75003 15.75V12.25C8.75003 11.8358 9.08585 11.5 9.50003 11.5ZM14.5 11.5C14.9142 11.5 15.25 11.8358 15.25 12.25V15.75C15.25 16.1642 14.9142 16.5 14.5 16.5C14.0858 16.5 13.75 16.1642 13.75 15.75V12.25C13.75 11.8358 14.0858 11.5 14.5 11.5Z" fill="#3C3C3C"/>
</g>
</svg>
