<svg width="24" height="24" viewBox="0 0 24 24" fill="none" xmlns="http://www.w3.org/2000/svg">
<g id="trash-alt-outline">
<path id="icon" fill-rule="evenodd" clip-rule="evenodd" d="M10.2197 3.9953C9.25283 3.9953 8.46918 4.77939 8.46971 5.74627L8.47061 7.38129H6.44017H5.04788C4.63367 7.38129 4.29788 7.71708 4.29788 8.13129C4.29788 8.54551 4.63367 8.88129 5.04788 8.88129H5.69017V17.2547C5.69017 18.7735 6.92139 20.0047 8.44017 20.0047H15.5636C17.0824 20.0047 18.3136 18.7735 18.3136 17.2547V8.88129H18.9521C19.3663 8.88129 19.7021 8.54551 19.7021 8.13129C19.7021 7.71708 19.3663 7.38129 18.9521 7.38129H17.5636H15.5323L15.5314 5.74433C15.5309 4.77821 14.7475 3.9953 13.7814 3.9953H10.2197ZM14.0323 7.38129H9.97061L9.96971 5.74544C9.96963 5.60731 10.0816 5.4953 10.2197 5.4953H13.7814C13.9194 5.4953 14.0313 5.60714 14.0314 5.74516L14.0323 7.38129ZM7.19017 17.2547V8.88129H9.22102H14.7827H16.8136V17.2547C16.8136 17.945 16.2539 18.5047 15.5636 18.5047H8.44017C7.74982 18.5047 7.19017 17.945 7.19017 17.2547Z" fill="#3C3C3C"/>
</g>
</svg>
