<svg width="24" height="24" viewBox="0 0 24 24" fill="none" xmlns="http://www.w3.org/2000/svg">
<path fill-rule="evenodd" clip-rule="evenodd" d="M11.2748 4.55784C9.41743 4.67881 7.70645 5.26876 6.4016 6.32497C4.91167 7.53099 4 9.30869 4 11.5344V12.2844H11.25V17.8216C11.25 19.0275 12.2323 19.9999 13.4326 19.9999C14.6282 19.9999 15.6067 19.0312 15.6067 17.8299C15.6067 17.4157 15.2709 17.0799 14.8567 17.0799C14.4425 17.0799 14.1067 17.4157 14.1067 17.8299C14.1067 18.1971 13.8055 18.4999 13.4326 18.4999C13.055 18.4999 12.75 18.1934 12.75 17.8216V12.2844H20V11.5344C20 9.30869 19.0883 7.53099 17.5984 6.32497C16.2936 5.26876 14.5826 4.67881 12.7252 4.55784C12.6403 4.23673 12.3478 4 12 4C11.6522 4 11.3597 4.23673 11.2748 4.55784ZM5.54442 10.7844H18.4556C18.2837 9.37257 17.6234 8.27506 16.6547 7.49088C15.5037 6.55927 13.8694 6.03445 12 6.03445C10.1306 6.03445 8.49626 6.55927 7.34535 7.49088C6.37656 8.27506 5.71629 9.37257 5.54442 10.7844Z" fill="#3C3C3C"/>
</svg>
