<svg width="24" height="24" viewBox="0 0 24 24" fill="none" xmlns="http://www.w3.org/2000/svg">
<path fill-rule="evenodd" clip-rule="evenodd" d="M9.6055 5.85503C10.2866 5.27122 11.3388 5.75518 11.3388 6.65225V9.32739C13.0531 9.5826 15.161 10.1619 16.936 11.2666C18.9737 12.5347 20.6246 14.5383 20.6246 17.5281C20.6246 17.8315 20.4419 18.105 20.1616 18.2211C19.8814 18.3371 19.5588 18.273 19.3443 18.0585C18.8865 17.6007 17.7523 16.6152 16.2005 15.8096C14.8177 15.0918 13.143 14.537 11.3388 14.5875V17.3477C11.3388 18.2448 10.2866 18.7287 9.6055 18.1449L3.98654 13.3287C3.17172 12.6303 3.17172 11.3697 3.98654 10.6713L9.6055 5.85503ZM9.83884 7.63065L4.96273 11.8102C4.84633 11.9099 4.84633 12.09 4.96273 12.1898L9.83884 16.3693V13.8886C9.83884 13.5066 10.1259 13.1857 10.5055 13.1432C12.9543 12.8694 15.1773 13.5884 16.8916 14.4783C17.627 14.8601 18.2781 15.278 18.8247 15.6737C18.3548 14.3189 17.3708 13.3039 16.1434 12.5401C14.3867 11.4468 12.1866 10.9132 10.5086 10.7328C10.1277 10.6918 9.83884 10.3703 9.83884 9.98709V7.63065ZM10.2888 6.65225L10.5817 6.99391L10.2888 6.65225Z" fill="#3C3C3C"/>
</svg>
