<svg width="24" height="24" viewBox="0 0 24 24" fill="none" xmlns="http://www.w3.org/2000/svg">
<g id="upload-outline">
<path id="icon" fill-rule="evenodd" clip-rule="evenodd" d="M16.186 13.3769C16.4789 13.6698 16.4789 14.1447 16.186 14.4376C15.8931 14.7305 15.4183 14.7305 15.1254 14.4376L12.75 12.0622L12.7501 19.2485C12.7501 19.6627 12.4143 19.9985 12.0001 19.9985C11.5859 19.9985 11.2501 19.6628 11.2501 19.2485L11.25 12.0622L8.87453 14.4376C8.58164 14.7305 8.10677 14.7305 7.81387 14.4376C7.52098 14.1447 7.52098 13.6698 7.81387 13.3769L11.4696 9.7212C11.7625 9.42831 12.2374 9.42831 12.5303 9.7212L16.186 13.3769ZM5.5 8.75155C5.5 9.16577 5.16421 9.50155 4.75 9.50155C4.33579 9.50155 4 9.16577 4 8.75155V5.05155C4 4.47165 4.4701 4.00155 5.05 4.00155H18.95C19.5299 4.00155 20 4.47165 20 5.05155V8.75155C20 9.16577 19.6642 9.50155 19.25 9.50155C18.8358 9.50155 18.5 9.16577 18.5 8.75155V5.50155H5.5V8.75155Z" fill="#3C3C3C"/>
</g>
</svg>
