<svg width="24" height="24" viewBox="0 0 24 24" fill="none" xmlns="http://www.w3.org/2000/svg">
<path fill-rule="evenodd" clip-rule="evenodd" d="M8.40113 5.49994C8.26307 5.49994 8.15113 5.61188 8.15113 5.74994V12.4406L9.52918 11.0601C9.82179 10.7669 10.2966 10.7665 10.5898 11.0591C10.883 11.3517 10.8834 11.8266 10.5908 12.1198L7.93196 14.7835C7.79115 14.9245 7.59992 15.0037 7.40058 15.0036C7.20124 15.0035 7.0102 14.924 6.86958 14.7827L4.21839 12.1191C3.92622 11.8254 3.92732 11.3505 4.2209 11.0584C4.51448 10.7662 4.98933 10.7673 5.28156 11.0609L6.65113 12.437V5.74994C6.65113 4.78339 7.43464 3.99994 8.40113 3.99994H10.52C11.4865 3.99994 12.27 4.78339 12.27 5.74994V6.99994C12.27 7.41412 11.9342 7.74994 11.52 7.74994C11.1058 7.74994 10.77 7.41412 10.77 6.99994V5.74994C10.77 5.61188 10.658 5.49994 10.52 5.49994H8.40113ZM15.5988 18.4999C15.7369 18.4999 15.8488 18.388 15.8488 18.2499L15.8488 11.5593L14.4708 12.9398C14.1782 13.2329 13.7033 13.2334 13.4101 12.9407C13.117 12.6481 13.1166 12.1732 13.4092 11.8801L16.068 9.21643C16.2088 9.07535 16.4 8.99613 16.5994 8.99628C16.7987 8.99642 16.9898 9.07591 17.1304 9.2172L19.7816 11.8809C20.0738 12.1744 20.0726 12.6493 19.7791 12.9415C19.4855 13.2337 19.0106 13.2326 18.7184 12.939L17.3488 11.563V18.2499C17.3488 19.2164 16.5653 19.9999 15.5988 19.9999H13.48C12.5135 19.9999 11.73 19.2164 11.73 18.2499L11.73 16.9999C11.73 16.5857 12.0658 16.2499 12.48 16.2499C12.8942 16.2499 13.23 16.5857 13.23 16.9999V18.2499C13.23 18.388 13.3419 18.4999 13.48 18.4999H15.5988Z" fill="#3C3C3C"/>
</svg>
